<svg width="30" height="30" viewBox="0 0 30 30" fill="none" xmlns="http://www.w3.org/2000/svg">
<g id="adv-icon4">
<path id="Vector" d="M14.9987 2C14.5796 2.00059 14.1652 2.089 13.7824 2.25954C13.3995 2.43007 13.0566 2.67895 12.7758 2.99012C12.495 3.30129 12.2825 3.66785 12.152 4.06617C12.0215 4.46449 11.976 4.88573 12.0183 5.30273L8.37375 8.21875C8.1676 8.38436 8.03544 8.62487 8.00615 8.88767C7.97687 9.15047 8.05286 9.41417 8.2175 9.62109L8.21164 9.62695L8.28 9.69141C8.29811 9.71104 8.31701 9.72993 8.33664 9.74805L10.3913 11.7344C10.8993 12.2254 11.0701 12.9719 10.8171 13.6309C10.3841 14.7559 9.99875 16.03 9.99875 17C9.99875 18.2213 10.8625 18.9967 11.9987 19.457V25.9668C11.9987 26.5368 12.462 27 13.032 27C13.576 27 14.0272 26.5782 14.0632 26.0352L14.5007 20.4648C14.5187 20.2038 14.7357 20 14.9987 20C15.2617 20 15.4788 20.2038 15.4968 20.4648L15.9343 26.0352C15.9703 26.5782 16.4215 27 16.9655 27C17.5355 27 17.9987 26.5368 17.9987 25.9668V19.457C19.135 18.9967 19.9987 18.2213 19.9987 17C19.9987 16.5361 19.8979 15.997 19.7585 15.4434L21.1667 17.5547C21.2386 17.6662 21.3319 17.7623 21.4412 17.8374C21.5506 17.9125 21.6738 17.9651 21.8036 17.9922C21.9335 18.0192 22.0674 18.0201 22.1977 17.9949C22.3279 17.9696 22.4518 17.9188 22.5622 17.8452C22.6726 17.7716 22.7672 17.6768 22.8406 17.5663C22.914 17.4558 22.9646 17.3318 22.9896 17.2015C23.0146 17.0712 23.0135 16.9373 22.9862 16.8074C22.9589 16.6776 22.9061 16.5545 22.8308 16.4453L19.4245 11.3359C19.4245 11.3353 19.4245 11.3346 19.4245 11.334C18.8684 10.5005 17.9298 10 16.9284 10H12.9987L11.2234 8.96289L13.0261 7.25781C13.5722 7.73565 14.2731 7.99933 14.9987 8C15.7944 8 16.5575 7.68393 17.1201 7.12132C17.6827 6.55871 17.9987 5.79565 17.9987 5C17.9987 4.20435 17.6827 3.44129 17.1201 2.87868C16.5575 2.31607 15.7944 2 14.9987 2ZM20.5554 4.83789C19.9205 4.83789 19.3991 4.88672 19.3991 4.88672C19.3991 4.88672 20.6772 6.52292 21.6042 6.91992C22.1122 7.13792 22.7017 6.90253 22.9187 6.39453C23.1367 5.88653 22.9013 5.29708 22.3933 5.08008C21.9388 4.88508 21.1903 4.83789 20.5554 4.83789ZM19.9987 8C19.9987 8 20.5787 9.99403 21.2917 10.707C21.6817 11.098 22.3148 11.098 22.7058 10.707C23.0968 10.317 23.0968 9.68397 22.7058 9.29297C22.0068 8.59397 19.9987 8 19.9987 8Z" fill="white"/>
</g>
</svg>
