<svg width="30" height="30" viewBox="0 0 30 30" fill="none" xmlns="http://www.w3.org/2000/svg">
<g id="adv-icon3">
<path id="Vector" d="M15 3C8.38443 3 3 8.38443 3 15C3 21.6156 8.38443 27 15 27C21.6156 27 27 21.6156 27 15C27 8.38443 21.6156 3 15 3ZM14.002 5.04883C14.0145 5.30515 14.1251 5.54685 14.3109 5.7239C14.4966 5.90095 14.7434 5.9998 15 6C15.2566 5.9998 15.5034 5.90095 15.6891 5.7239C15.8749 5.54685 15.9855 5.30515 15.998 5.04883C20.7325 5.5157 24.4843 9.26745 24.9512 14.002C24.6948 14.0145 24.4531 14.1251 24.2761 14.3109C24.099 14.4966 24.0002 14.7434 24 15C24.0002 15.2566 24.099 15.5034 24.2761 15.6891C24.4531 15.8749 24.6948 15.9855 24.9512 15.998C24.4843 20.7325 20.7325 24.4843 15.998 24.9512C15.9855 24.6948 15.8749 24.4531 15.6891 24.2761C15.5034 24.099 15.2566 24.0002 15 24C14.7434 24.0002 14.4966 24.099 14.3109 24.2761C14.1251 24.4531 14.0145 24.6948 14.002 24.9512C9.26745 24.4843 5.5157 20.7325 5.04883 15.998C5.30515 15.9855 5.54685 15.8749 5.7239 15.6891C5.90095 15.5034 5.9998 15.2566 6 15C5.9998 14.7434 5.90095 14.4966 5.7239 14.3109C5.54685 14.1251 5.30515 14.0145 5.04883 14.002C5.5157 9.26745 9.26745 5.5157 14.002 5.04883ZM15 7C10.582 7 7 10.582 7 15C7 19.418 10.582 23 15 23C19.418 23 23 19.418 23 15C23 10.582 19.418 7 15 7ZM15 9C15.553 9 16 9.448 16 10V14.5859L18.707 17.293C19.098 17.684 19.098 18.316 18.707 18.707C18.512 18.902 18.256 19 18 19C17.744 19 17.488 18.902 17.293 18.707L14 15.4141V10C14 9.448 14.447 9 15 9Z" fill="white"/>
</g>
</svg>
