<svg width="30" height="30" viewBox="0 0 30 30" fill="none" xmlns="http://www.w3.org/2000/svg">
<g id="adv-icon6">
<path id="Vector" d="M5 5C3.35503 5 2 6.35503 2 8V21C2 21.7686 2.30412 22.4666 2.78711 23H0C0 24.657 1.343 26 3 26H27C28.657 26 30 24.657 30 23H27.2129C27.6959 22.4666 28 21.7686 28 21V8C28 6.35503 26.645 5 25 5H5ZM5 7H25C25.565 7 26 7.43497 26 8V21C26 21.565 25.565 22 25 22H5C4.43497 22 4 21.565 4 21V8C4 7.43497 4.43497 7 5 7ZM12.7773 10C12.3473 10 12 10.3473 12 10.7773V17.7773C12 18.2073 12.3473 18.5566 12.7773 18.5566C13.0013 18.5566 13.1998 18.4586 13.3418 18.3066L13.3457 18.3086L14.6445 16.7754L15.9805 19.4473C16.0392 19.5648 16.1205 19.6695 16.2197 19.7556C16.3189 19.8417 16.4341 19.9074 16.5587 19.9489C16.6833 19.9905 16.8149 20.0071 16.9459 19.9978C17.077 19.9884 17.2049 19.9534 17.3223 19.8947C17.4398 19.8359 17.5446 19.7546 17.6306 19.6554C17.7167 19.5562 17.7824 19.441 17.8239 19.3163C17.8654 19.1917 17.882 19.0601 17.8727 18.9291C17.8633 18.7981 17.8283 18.6702 17.7695 18.5527L16.3848 15.7832L18.4375 15.4141L18.4395 15.4004C18.7605 15.3054 19 15.021 19 14.668C19 14.396 18.8516 14.1683 18.6406 14.0293L18.6426 14.0137L13.3027 10.2051L13.2988 10.207C13.1608 10.081 12.9793 10 12.7773 10Z" fill="white"/>
</g>
</svg>
