<svg width="30" height="30" viewBox="0 0 30 30" fill="none" xmlns="http://www.w3.org/2000/svg">
<g id="adv-icon2">
<path id="Vector" d="M18.9648 3.00001C18.7675 3.00713 18.5767 3.07251 18.4165 3.18791C18.2562 3.3033 18.1338 3.46355 18.0645 3.64844L15.3086 11H6C4.895 11 4 11.895 4 13C4 14.105 4.895 15 6 15H15.3086L18.0645 22.3516C18.1459 22.5683 18.3001 22.7501 18.5006 22.8658C18.7011 22.9816 18.9356 23.0242 19.1641 22.9863L25.1641 21.9863C25.3976 21.9475 25.6098 21.827 25.7628 21.6464C25.9159 21.4658 26 21.2368 26 21V5.00001C26 4.76326 25.9159 4.53421 25.7628 4.3536C25.6098 4.17299 25.3976 4.05254 25.1641 4.01368L19.1641 3.01368C19.0983 3.00249 19.0315 2.99791 18.9648 3.00001ZM20 5.17969L24 5.84766V20.1524L20 20.8203V5.17969ZM9 17V22.5859L6.29297 25.293C6.197 25.3851 6.12037 25.4955 6.06759 25.6176C6.0148 25.7397 5.98692 25.8712 5.98556 26.0042C5.98421 26.1373 6.00942 26.2692 6.0597 26.3924C6.10999 26.5156 6.18436 26.6275 6.27843 26.7216C6.37251 26.8157 6.48442 26.89 6.60759 26.9403C6.73077 26.9906 6.86275 27.0158 6.99579 27.0144C7.12883 27.0131 7.26026 26.9852 7.38239 26.9324C7.50452 26.8796 7.61489 26.803 7.70703 26.707L9.0625 25.3516C9.13412 25.5423 9.26227 25.7066 9.42981 25.8224C9.59735 25.9383 9.79629 26.0003 10 26C10.2036 25.9997 10.4023 25.9373 10.5695 25.8211C10.7366 25.7049 10.8644 25.5404 10.9355 25.3496L12.293 26.707C12.3851 26.803 12.4955 26.8796 12.6176 26.9324C12.7397 26.9852 12.8712 27.0131 13.0042 27.0145C13.1373 27.0158 13.2692 26.9906 13.3924 26.9403C13.5156 26.89 13.6275 26.8157 13.7216 26.7216C13.8156 26.6275 13.89 26.5156 13.9403 26.3924C13.9906 26.2692 14.0158 26.1373 14.0144 26.0042C14.0131 25.8712 13.9852 25.7397 13.9324 25.6176C13.8796 25.4955 13.803 25.3851 13.707 25.293L11 22.5859V17H9Z" fill="white"/>
</g>
</svg>
