<svg width="30" height="30" viewBox="0 0 30 30" fill="none" xmlns="http://www.w3.org/2000/svg">
<g id="adv-icon1">
<path id="Vector" d="M12.2363 3C11.4783 3 10.7863 3.42747 10.4473 4.10547L10.0527 4.89453C9.71373 5.57153 9.02067 6 8.26367 6H7C5.895 6 5 6.895 5 8V17C5 18.105 5.895 19 7 19H10.9863C10.9863 19.1325 11.0126 19.2636 11.0638 19.3859C11.1149 19.5081 11.1898 19.6189 11.2841 19.712C11.3784 19.805 11.4902 19.8784 11.6131 19.9278C11.736 19.9773 11.8675 20.0018 12 20H14V21.5195L9.375 25.2188C9.27236 25.3008 9.1869 25.4023 9.12349 25.5174C9.06008 25.6325 9.01996 25.7589 9.00543 25.8895C8.9909 26.0202 9.00224 26.1523 9.03881 26.2786C9.07537 26.4048 9.13644 26.5226 9.21853 26.6252C9.30063 26.7278 9.40213 26.8132 9.51724 26.8766C9.63236 26.94 9.75883 26.9801 9.88944 26.9946C10.02 27.0091 10.1522 26.9977 10.2784 26.9611C10.4046 26.9245 10.5224 26.8634 10.625 26.7812L14 24.082V27C13.9981 27.1325 14.0226 27.2641 14.072 27.387C14.1214 27.51 14.1948 27.6219 14.2878 27.7163C14.3809 27.8107 14.4918 27.8856 14.614 27.9368C14.7363 27.9879 14.8675 28.0142 15 28.0142C15.1325 28.0142 15.2637 27.9879 15.386 27.9368C15.5082 27.8856 15.6191 27.8107 15.7122 27.7163C15.8052 27.6219 15.8786 27.51 15.928 27.387C15.9774 27.2641 16.0019 27.1325 16 27V24.082L19.375 26.7812C19.4776 26.8634 19.5954 26.9245 19.7216 26.9611C19.8478 26.9977 19.98 27.0091 20.1106 26.9946C20.2412 26.9801 20.3676 26.94 20.4828 26.8766C20.5979 26.8132 20.6994 26.7278 20.7815 26.6252C20.8636 26.5226 20.9246 26.4048 20.9612 26.2786C20.9978 26.1523 21.0091 26.0202 20.9946 25.8895C20.98 25.7589 20.9399 25.6325 20.8765 25.5174C20.8131 25.4023 20.7276 25.3008 20.625 25.2188L16 21.5195V20H18C18.1325 20.0018 18.264 19.9773 18.3869 19.9278C18.5098 19.8784 18.6216 19.805 18.7159 19.712C18.8102 19.6189 18.8851 19.5081 18.9362 19.3859C18.9873 19.2636 19.0137 19.1325 19.0137 19H23C24.105 19 25 18.105 25 17V8C25 6.895 24.105 6 23 6H21.7363C20.9783 6 20.2863 5.57253 19.9473 4.89453L19.5527 4.10547C19.2137 3.42847 18.5207 3 17.7637 3H12.2363ZM8 4C7.386 4 7 4.448 7 5H9C9 4.448 8.614 4 8 4ZM15 7C17.757 7 20 9.243 20 12C20 14.7187 17.8176 16.933 15.1133 16.9941C15.0705 16.9888 15.0275 16.9862 14.9844 16.9863C14.9478 16.9869 14.9113 16.9895 14.875 16.9941C12.1762 16.9269 10 14.7148 10 12C10 9.243 12.243 7 15 7ZM22 8C22.552 8 23 8.448 23 9C23 9.552 22.552 10 22 10C21.448 10 21 9.552 21 9C21 8.448 21.448 8 22 8ZM15 9C14.2044 9 13.4413 9.31607 12.8787 9.87868C12.3161 10.4413 12 11.2044 12 12C12 12.7956 12.3161 13.5587 12.8787 14.1213C13.4413 14.6839 14.2044 15 15 15C15.7956 15 16.5587 14.6839 17.1213 14.1213C17.6839 13.5587 18 12.7956 18 12C18 11.2044 17.6839 10.4413 17.1213 9.87868C16.5587 9.31607 15.7956 9 15 9Z" fill="white"/>
</g>
</svg>
