<svg width="56" height="56" viewBox="0 0 56 56" fill="none" xmlns="http://www.w3.org/2000/svg">
<g clip-path="url(#clip0_22_1754)">
<circle cx="28" cy="28" r="28" fill="#1E1E1E"/>
<path d="M20.6659 19.9336C19.8556 19.9336 19.1992 20.5899 19.1992 21.4003V27.2669C19.1992 28.0773 19.8556 28.7336 20.6659 28.7336H23.6293C23.6476 30.0435 23.5194 32.8502 22.2514 34.9326H22.2529C22.1593 35.0768 22.1194 35.2494 22.1401 35.4201C22.1608 35.5909 22.2409 35.7489 22.3663 35.8666C22.4916 35.9843 22.6544 36.0542 22.8261 36.0641C22.9978 36.0741 23.1675 36.0233 23.3056 35.9208C23.3056 35.9208 26.5326 33.4595 26.5326 28.7336V21.4003C26.5326 20.5899 25.8762 19.9336 25.0659 19.9336H20.6659ZM30.9326 19.9336C30.1222 19.9336 29.4659 20.5899 29.4659 21.4003V27.2669C29.4659 28.0773 30.1222 28.7336 30.9326 28.7336H33.896C33.9142 30.0435 33.7861 32.8502 32.5181 34.9326H32.5195C32.426 35.0768 32.386 35.2494 32.4068 35.4201C32.4275 35.5909 32.5075 35.7489 32.6329 35.8666C32.7583 35.9843 32.9211 36.0542 33.0928 36.0641C33.2644 36.0741 33.4342 36.0233 33.5723 35.9208C33.5723 35.9208 36.7992 33.4595 36.7992 28.7336V21.4003C36.7992 20.5899 36.1429 19.9336 35.3326 19.9336H30.9326Z" fill="white"/>
</g>
<defs>
<clipPath id="clip0_22_1754">
<rect width="56" height="56" fill="white"/>
</clipPath>
</defs>
</svg>
