<svg width="34" height="28" viewBox="0 0 34 28" fill="none" xmlns="http://www.w3.org/2000/svg">
<g id="Layer_1" clip-path="url(#clip0_22_1984)">
<path id="Vector" fill-rule="evenodd" clip-rule="evenodd" d="M6.94171 9.70167L0.449219 6.66039C0.72659 6.16 1.11828 5.73107 1.59288 5.40802C2.06748 5.08496 2.61177 4.87677 3.18209 4.80015L10.7269 3.60898L14.4047 1.70818L20.366 1.9971L25.985 1.29761C28.0282 0.983346 28.8353 0.983346 30.6283 2.10862L33.0956 3.7357C33.6064 4.0601 33.9844 5.21072 33.9793 6.17886C33.9793 6.55902 31.936 4.53657 30.1992 4.82042L25.2443 5.58581L22.2662 1.9971L16.2028 2.97538L16.5451 7.29906L6.94171 9.70167Z" fill="url(#paint0_linear_22_1984)"/>
<path id="Vector_2" fill-rule="evenodd" clip-rule="evenodd" d="M8.44469 8.36857C6.49848 8.66763 6.23285 9.13396 4.73616 8.29761C4.19469 8.00362 3.67877 7.6488 3.15263 7.32947C1.47715 6.31571 1.28303 5.96597 2.38129 5.04345C1.79336 5.23418 1.26534 5.573 0.84884 6.02679C0.690486 6.20927 0.787542 6.23461 0.583215 6.46271C-0.198336 7.34975 0.0315319 10.2694 0.0315319 12.2411V22.0644C0.0315319 23.4279 0.322698 24.7408 1.73766 25.8255L4.89962 27.706C5.86953 28.0027 6.89397 28.0806 7.89812 27.9341L5.45641 25.5974L5.72715 12.3476C6.22775 11.4656 7.93898 9.25561 8.44469 8.36857Z" fill="url(#paint1_linear_22_1984)"/>
<path id="Vector_3" fill-rule="evenodd" clip-rule="evenodd" d="M9.6591 8.12527L30.572 4.53657C34.3367 3.92831 33.9893 4.92686 33.9842 8.43447V20.4475C33.9842 22.5308 34.2601 23.6155 32.2679 23.9348L10.1239 27.6097C7.2838 28.0659 5.45508 28.4258 5.45508 25.3338L5.56235 12.2563C5.56235 9.13396 6.77809 8.58146 9.64889 8.12527H9.6591Z" fill="url(#paint2_linear_22_1984)"/>
<path id="Vector_4" fill-rule="evenodd" clip-rule="evenodd" d="M16.6172 7.10138L18.1343 2.78277L23.503 1.80449L26.1388 5.39319L16.6172 7.10138Z" fill="url(#paint3_linear_22_1984)"/>
<path id="Vector_5" fill-rule="evenodd" clip-rule="evenodd" d="M11.0332 3.57857L16.6369 7.02534L18.2817 2.85373L15.1146 0.993483L11.0332 3.57857Z" fill="#9E9E9E"/>
<path id="Vector_6" fill-rule="evenodd" clip-rule="evenodd" d="M15.084 1.02897L20.1615 0.157133L23.584 1.85011L18.2153 2.83345L15.084 1.02897Z" fill="#B3B3B3"/>
<path id="Vector_7" fill-rule="evenodd" clip-rule="evenodd" d="M5.7518 5.63649C5.7518 5.12962 7.28425 4.73932 9.1896 4.73932C11.0949 4.73932 12.607 5.12962 12.607 5.63649C12.607 6.14337 11.0745 6.55395 9.1896 6.55395C7.30468 6.55395 5.7518 6.15858 5.7518 5.63649Z" fill="#8A8A8A"/>
<path id="Vector_8" fill-rule="evenodd" clip-rule="evenodd" d="M5.7518 5.10934C5.7518 4.62781 7.28425 4.21217 9.1896 4.21217C11.0949 4.21217 12.607 4.62781 12.607 5.10934C12.607 5.59088 11.0745 6.02679 9.1896 6.02679C7.30468 6.02679 5.7518 5.6365 5.7518 5.10934Z" fill="url(#paint4_linear_22_1984)"/>
<path id="Vector_9" fill-rule="evenodd" clip-rule="evenodd" d="M4.45508 6.98986C4.45508 6.72629 5.00676 6.57422 5.71169 6.57422C6.41662 6.57422 6.9683 6.72629 6.9683 6.98986C6.9683 7.25344 6.39108 7.42578 5.71169 7.42578C5.0323 7.42578 4.45508 7.20782 4.45508 6.98986Z" fill="#8A8A8A"/>
<path id="Vector_10" fill-rule="evenodd" clip-rule="evenodd" d="M4.70508 5.38306L6.64108 5.33744V7.04055C5.95658 7.27878 5.42022 7.42071 4.72551 6.93411L4.70508 5.38306Z" fill="#C4C7C7"/>
<path id="Vector_11" fill-rule="evenodd" clip-rule="evenodd" d="M4.67969 5.37292C4.67969 5.10934 5.07813 4.86604 5.62981 4.86604C6.18149 4.86604 6.62079 5.0029 6.62079 5.24113C6.62079 5.47936 6.22236 5.70239 5.67067 5.72266C5.11899 5.74294 4.67969 5.59088 4.67969 5.37292Z" fill="#D9D9D9"/>
<path id="Vector_12" fill-rule="evenodd" clip-rule="evenodd" d="M5.88882 5.90007L6.04207 5.85445L6.28215 5.76828L6.26172 7.01521L6.10337 7.0811L5.86328 7.147L5.88882 5.90007Z" fill="white"/>
<path id="Vector_13" fill-rule="evenodd" clip-rule="evenodd" d="M7.78516 5.10934C8.23209 4.9313 8.71587 4.86346 9.19501 4.91166C9.66745 4.86516 10.1442 4.93299 10.5844 5.10934C10.5844 5.24113 9.94591 5.3273 9.19501 5.3273C8.44411 5.3273 7.78516 5.24113 7.78516 5.10934Z" fill="#8A8A8A"/>
<path id="Vector_14" fill-rule="evenodd" clip-rule="evenodd" d="M18.4507 2.57495L22.5015 1.77408L20.1211 0.430847L16.0703 1.08979L18.4507 2.57495Z" fill="#EBEDED"/>
<path id="Vector_15" fill-rule="evenodd" clip-rule="evenodd" d="M15.6621 0.527155V0.963071L18.3797 2.57495L18.4818 2.063L15.6621 0.527155Z" fill="#C4C7C7"/>
<path id="Vector_16" fill-rule="evenodd" clip-rule="evenodd" d="M20.162 0L20.1722 0.430847L22.5015 1.77408L22.573 1.26213L20.162 0Z" fill="#8A8A8A"/>
<path id="Vector_17" fill-rule="evenodd" clip-rule="evenodd" d="M3.32571 13.2853C3.06009 13.2853 2.89152 12.748 2.87619 12.0485C2.86087 11.349 2.99368 10.8016 3.2593 10.7915C3.52493 10.7813 3.71393 11.349 3.73436 12.0282C3.7548 12.7075 3.57601 13.2802 3.32571 13.2853Z" fill="#8A8A8A"/>
<path id="Vector_18" fill-rule="evenodd" clip-rule="evenodd" d="M2.24301 13.0724C1.13454 12.3831 1.14476 11.7545 2.14085 11.1665H2.27366C2.41157 11.2335 2.5641 11.2653 2.71749 11.2591C2.87088 11.2529 3.0203 11.2089 3.15227 11.1311H3.26976C3.5456 11.8001 3.71928 12.3324 3.20846 13.0369H3.06543C2.96952 12.9659 2.85152 12.9306 2.73202 12.937C2.61253 12.9435 2.49912 12.9914 2.41158 13.0724H2.24301Z" fill="#C4C7C7"/>
<path id="Vector_19" fill-rule="evenodd" clip-rule="evenodd" d="M2.57903 11.5214L2.55349 11.4301L2.49219 11.2882L3.25841 11.2831L3.29928 11.3744L3.34525 11.5214H2.57903Z" fill="white"/>
<path id="Vector_20" fill-rule="evenodd" clip-rule="evenodd" d="M20.6364 9.12889C21.4189 8.96754 22.2294 9.00066 22.9959 9.22528C23.7623 9.4499 24.4609 9.85907 25.0295 10.4164C25.6352 11.0487 26.1066 11.7955 26.4155 12.6123C26.7244 13.4291 26.8645 14.2992 26.8275 15.1709C26.7994 17.1368 26.1389 19.0424 24.9426 20.6097C23.8788 22.0912 22.2892 23.118 20.4934 23.4837C19.7093 23.6334 18.9001 23.5872 18.1385 23.3491C17.377 23.1111 16.6871 22.6888 16.131 22.1202C15.5398 21.4802 15.083 20.7296 14.7874 19.9124C14.4919 19.0951 14.3634 18.2277 14.4096 17.3606C14.4445 15.4289 15.0895 13.5567 16.2536 12.008C17.3043 10.5422 18.8663 9.51616 20.6364 9.12889Z" fill="url(#paint5_linear_22_1984)"/>
<path id="Vector_21" fill-rule="evenodd" clip-rule="evenodd" d="M24.188 8.72339C25.1201 8.53054 26.0863 8.57589 26.9959 8.85517C27.9055 9.13446 28.7287 9.63853 29.3881 10.3201C30.8546 11.9215 31.624 14.033 31.5285 16.1948C31.4991 18.6137 30.7177 20.9646 29.2911 22.9261C28.0455 24.7377 26.1482 26.0073 23.9888 26.4743C23.0497 26.655 22.0796 26.5948 21.1705 26.2995C20.2614 26.0041 19.4433 25.4833 18.7938 24.7864C17.3661 23.1638 16.633 21.0524 16.7505 18.9015C16.7974 16.52 17.5743 14.2091 18.9777 12.2766C20.2028 10.4846 22.063 9.2161 24.188 8.72339Z" fill="url(#paint6_linear_22_1984)"/>
<path id="Vector_22" fill-rule="evenodd" clip-rule="evenodd" d="M25.7503 9.14917C26.7143 8.95237 27.7124 8.99466 28.6561 9.27229C29.5997 9.54993 30.4597 10.0543 31.1599 10.7408C31.9068 11.5237 32.4875 12.4477 32.8675 13.4578C33.2475 14.4679 33.4189 15.5434 33.3717 16.6206C33.3352 19.0497 32.5192 21.4041 31.0424 23.3418C29.7272 25.1704 27.7637 26.4379 25.546 26.8899C24.5763 27.0729 23.576 27.0145 22.6347 26.7199C21.6933 26.4254 20.8402 25.9038 20.1517 25.202C19.4231 24.411 18.8598 23.4846 18.4941 22.4762C18.1285 21.4679 17.9679 20.3976 18.0216 19.3273C18.0742 16.9345 18.8837 14.6186 20.3356 12.7075C21.6338 10.8965 23.5634 9.62846 25.7503 9.14917Z" fill="url(#paint7_linear_22_1984)"/>
<path id="Vector_23" fill-rule="evenodd" clip-rule="evenodd" d="M25.9093 11.202C26.6561 11.0503 27.4292 11.0838 28.1598 11.2996C28.8905 11.5153 29.5562 11.9066 30.098 12.4388C30.6795 13.0451 31.1318 13.7617 31.4276 14.5456C31.7234 15.3295 31.8567 16.1645 31.8195 17.0007C31.7867 18.8781 31.1555 20.697 30.0163 22.1962C28.9977 23.6182 27.4733 24.6036 25.751 24.9537C24.9982 25.0951 24.2219 25.0497 23.4912 24.8215C22.7604 24.5934 22.0978 24.1895 21.5622 23.6459C20.9973 23.0312 20.5607 22.3117 20.2775 21.5287C19.9943 20.7457 19.8702 19.9148 19.9123 19.084C19.9566 17.2289 20.5834 15.4339 21.7053 13.9493C22.7164 12.5496 24.214 11.5709 25.9093 11.202Z" fill="url(#paint8_linear_22_1984)"/>
<path id="Vector_24" fill-rule="evenodd" clip-rule="evenodd" d="M10.6505 20.2194C10.0024 19.0235 9.68511 17.6786 9.73107 16.3215C9.78137 14.2159 10.496 12.1789 11.7743 10.4975C12.3795 9.69488 13.1148 8.99771 13.9504 8.43447C13.8023 8.61187 13.6541 8.79435 13.5162 8.9819C11.598 11.5027 10.5259 14.5576 10.4513 17.7154C10.4356 18.5545 10.5024 19.3931 10.6505 20.2194Z" fill="white"/>
<path id="Vector_25" fill-rule="evenodd" clip-rule="evenodd" d="M27.7417 11.2527C28.6884 11.4004 29.5642 11.8403 30.2447 12.5098C30.8213 13.1108 31.27 13.8209 31.564 14.5977C31.858 15.3745 31.9913 16.2021 31.956 17.0311C31.9253 18.8979 31.2974 20.7067 30.163 22.1962C29.1493 23.6086 27.6347 24.5882 25.9232 24.9384C25.0669 25.0967 24.1832 25.0178 23.3691 24.7104C23.8988 24.7936 24.4384 24.7936 24.968 24.7104C26.6774 24.3585 28.1898 23.3791 29.2027 21.9681C30.3395 20.4741 30.9675 18.6597 30.9956 16.7878C31.0298 15.9589 30.896 15.1316 30.602 14.355C30.3081 13.5783 29.86 12.8681 29.2844 12.2665C28.8447 11.8283 28.3199 11.4834 27.7417 11.2527Z" fill="#808080"/>
<path id="Vector_26" fill-rule="evenodd" clip-rule="evenodd" d="M29.3114 14.3447C29.9619 15.1526 30.2989 16.165 30.2616 17.1984C30.2462 18.4808 29.8164 19.7245 29.0356 20.7466C28.6691 21.2404 28.2157 21.6646 27.6973 21.9986C27.9228 21.7747 28.1327 21.5359 28.3256 21.2839C29.2961 20.0189 29.8331 18.4789 29.858 16.8892C29.8713 16.011 29.6845 15.1412 29.3114 14.3447Z" fill="white"/>
<path id="Vector_27" fill-rule="evenodd" clip-rule="evenodd" d="M27.8957 14.4765C27.7796 14.4724 27.6648 14.503 27.5663 14.5642C27.4678 14.6254 27.39 14.7145 27.3429 14.8199C27.2958 14.9254 27.2816 15.0424 27.3021 15.156C27.3227 15.2695 27.377 15.3744 27.4581 15.457C27.5391 15.5397 27.6433 15.5964 27.7571 15.6198C27.8709 15.6432 27.9892 15.6323 28.0967 15.5884C28.2043 15.5445 28.2961 15.4697 28.3604 15.3737C28.4247 15.2776 28.4586 15.1646 28.4576 15.0492C28.459 14.8995 28.4007 14.7554 28.2955 14.6481C28.1903 14.5408 28.0466 14.4791 27.8957 14.4765Z" fill="white"/>
<path id="Vector_28" fill-rule="evenodd" clip-rule="evenodd" d="M28.2284 16.3773C28.1295 16.3773 28.0346 16.4162 27.9647 16.4856C27.8948 16.555 27.8555 16.6492 27.8555 16.7473C27.8555 16.8454 27.8948 16.9395 27.9647 17.0089C28.0346 17.0783 28.1295 17.1173 28.2284 17.1173C28.3273 17.1173 28.4221 17.0783 28.492 17.0089C28.562 16.9395 28.6013 16.8454 28.6013 16.7473C28.6013 16.6492 28.562 16.555 28.492 16.4856C28.4221 16.4162 28.3273 16.3773 28.2284 16.3773Z" fill="white"/>
</g>
<defs>
<linearGradient id="paint0_linear_22_1984" x1="19.0329" y1="-7.18623" x2="16.1567" y2="12.9887" gradientUnits="userSpaceOnUse">
<stop stop-color="#B2B3B3"/>
<stop offset="1" stop-color="#FEFEFE"/>
</linearGradient>
<linearGradient id="paint1_linear_22_1984" x1="3.50815" y1="26.8393" x2="4.84618" y2="-9.96985" gradientUnits="userSpaceOnUse">
<stop stop-color="#727271"/>
<stop offset="0.67" stop-color="#B8B8B7"/>
<stop offset="1" stop-color="#FEFEFE"/>
</linearGradient>
<linearGradient id="paint2_linear_22_1984" x1="18.6279" y1="25.0319" x2="23.1839" y2="-12.703" gradientUnits="userSpaceOnUse">
<stop stop-color="#727271"/>
<stop offset="0.67" stop-color="#B8B8B7"/>
<stop offset="1" stop-color="#FEFEFE"/>
</linearGradient>
<linearGradient id="paint3_linear_22_1984" x1="26.9265" y1="7.67486" x2="10.3501" y2="-0.314587" gradientUnits="userSpaceOnUse">
<stop stop-color="#333333"/>
<stop offset="0.67" stop-color="#797979"/>
<stop offset="1" stop-color="#A7A7A7"/>
</linearGradient>
<linearGradient id="paint4_linear_22_1984" x1="7.38151" y1="5.26495" x2="12.7572" y2="4.4203" gradientUnits="userSpaceOnUse">
<stop stop-color="#EBEDED"/>
<stop offset="1" stop-color="#FEFEFE"/>
</linearGradient>
<linearGradient id="paint5_linear_22_1984" x1="19.9578" y1="21.1589" x2="21.8939" y2="1.67581" gradientUnits="userSpaceOnUse">
<stop stop-color="#727271"/>
<stop offset="0.67" stop-color="#B8B8B7"/>
<stop offset="1" stop-color="#FEFEFE"/>
</linearGradient>
<linearGradient id="paint6_linear_22_1984" x1="34.5888" y1="29.9091" x2="12.4121" y2="3.51774" gradientUnits="userSpaceOnUse">
<stop stop-color="#9D9E9E"/>
<stop offset="1" stop-color="#FEFEFE"/>
</linearGradient>
<linearGradient id="paint7_linear_22_1984" x1="45.4011" y1="38.9463" x2="19.7093" y2="11.2921" gradientUnits="userSpaceOnUse">
<stop stop-color="#9D9E9E"/>
<stop offset="1" stop-color="#FEFEFE"/>
</linearGradient>
<linearGradient id="paint8_linear_22_1984" x1="25.3656" y1="17.8883" x2="10.6354" y2="13.9588" gradientUnits="userSpaceOnUse">
<stop stop-color="#333333"/>
<stop offset="0.67" stop-color="#797979"/>
<stop offset="1" stop-color="#A7A7A7"/>
</linearGradient>
<clipPath id="clip0_22_1984">
<rect width="34" height="28" fill="white"/>
</clipPath>
</defs>
</svg>
