<svg width="18" height="18" viewBox="0 0 18 18" fill="none" xmlns="http://www.w3.org/2000/svg">
<path d="M12.7354 10.733C12.4918 10.5902 12.1924 10.5932 11.95 10.7372L10.7224 11.4686C10.4476 11.6324 10.1044 11.6132 9.85239 11.4164C9.41679 11.0762 8.71539 10.5038 8.1052 9.89364C7.495 9.28344 6.9226 8.58204 6.5824 8.14644C6.3856 7.89444 6.3664 7.55124 6.5302 7.27644L7.2616 6.04884C7.4062 5.80644 7.40739 5.50464 7.2646 5.26104L5.46339 2.18424C5.28879 1.88664 4.942 1.74024 4.6066 1.82244C4.2808 1.90164 3.8578 2.09484 3.4144 2.53884C2.026 3.92724 1.2886 6.26904 6.50979 11.4902C11.731 16.7114 14.0722 15.9746 15.4612 14.5856C15.9058 14.141 16.0984 13.7174 16.1782 13.391C16.2592 13.0562 16.1152 12.7118 15.8182 12.5378C15.0766 12.104 13.477 11.1674 12.7354 10.733Z" fill="#1E1E1E"/>
</svg>
