<svg width="32" height="33" viewBox="0 0 32 33" fill="none" xmlns="http://www.w3.org/2000/svg">
<path d="M22.639 19.58C22.2059 19.3261 21.6736 19.3315 21.2427 19.5875L19.0603 20.8877C18.5718 21.1789 17.9616 21.1448 17.5136 20.7949C16.7392 20.1901 15.4923 19.1725 14.4075 18.0877C13.3227 17.0029 12.3051 15.756 11.7003 14.9816C11.3504 14.5336 11.3163 13.9235 11.6075 13.4349L12.9078 11.2525C13.1648 10.8216 13.167 10.2851 12.9131 9.85198L9.71097 4.38212C9.40057 3.85305 8.78403 3.59278 8.18777 3.73892C7.60857 3.87972 6.85657 4.22318 6.0683 5.01252C3.60003 7.48078 2.2891 11.644 11.5712 20.9261C20.8534 30.2082 25.0155 28.8984 27.4848 26.429C28.2752 25.6386 28.6176 24.8856 28.7595 24.3053C28.9035 23.7101 28.6475 23.0978 28.1195 22.7885C26.8011 22.0173 23.9574 20.3523 22.639 19.58Z" fill="#1E1E1E"/>
</svg>
