<svg width="18" height="18" viewBox="0 0 18 18" fill="none" xmlns="http://www.w3.org/2000/svg">
<g id="phone">
<path id="Vector" d="M12.7354 10.7321C12.4918 10.5893 12.1924 10.5923 11.95 10.7363L10.7224 11.4677C10.4476 11.6315 10.1044 11.6123 9.85239 11.4155C9.41679 11.0753 8.71539 10.5029 8.1052 9.89267C7.495 9.28247 6.9226 8.58107 6.5824 8.14547C6.3856 7.89347 6.3664 7.55027 6.5302 7.27547L7.2616 6.04787C7.4062 5.80547 7.40739 5.50367 7.2646 5.26007L5.46339 2.18327C5.28879 1.88567 4.942 1.73927 4.6066 1.82147C4.2808 1.90067 3.8578 2.09387 3.4144 2.53787C2.026 3.92627 1.2886 6.26807 6.50979 11.4893C11.731 16.7105 14.0722 15.9737 15.4612 14.5847C15.9058 14.1401 16.0984 13.7165 16.1782 13.3901C16.2592 13.0553 16.1152 12.7109 15.8182 12.5369C15.0766 12.1031 13.477 11.1665 12.7354 10.7321Z" fill="white"/>
</g>
</svg>
