<svg width="18" height="19" viewBox="0 0 18 19" fill="none" xmlns="http://www.w3.org/2000/svg">
<path fill-rule="evenodd" clip-rule="evenodd" d="M3.29057 8.85995C6.37757 7.56162 8.43605 6.70568 9.46602 6.29213C12.4068 5.11137 13.0179 4.90626 13.4161 4.89949C13.5037 4.898 13.6996 4.91895 13.8265 5.01833C13.9336 5.10225 13.9631 5.2156 13.9772 5.29516C13.9913 5.37472 14.0089 5.55596 13.9949 5.69758C13.8355 7.31395 13.146 11.2365 12.7952 13.0468C12.6467 13.8129 12.3544 14.0697 12.0715 14.0949C11.4565 14.1495 10.9896 13.7025 10.394 13.3257C9.46199 12.7359 8.93547 12.3688 8.0308 11.7933C6.98531 11.1282 7.66306 10.7627 8.25888 10.1653C8.41482 10.0089 11.1243 7.6299 11.1767 7.41409C11.1833 7.3871 11.1893 7.28649 11.1274 7.23336C11.0655 7.18024 10.9741 7.1984 10.9082 7.21285C10.8147 7.23333 9.32583 8.18331 6.44155 10.0628C6.01893 10.3429 5.63614 10.4794 5.29318 10.4723C4.91508 10.4644 4.18778 10.2659 3.64711 10.0962C2.98395 9.88814 2.45689 9.77812 2.50279 9.42472C2.52669 9.24064 2.78928 9.05239 3.29057 8.85995Z" fill="#1E1E1E"/>
</svg>
