<svg width="18" height="18" viewBox="0 0 18 18" fill="none" xmlns="http://www.w3.org/2000/svg">
<g id="telegram">
<g id="tg">
<path id="Path-3_1_" fill-rule="evenodd" clip-rule="evenodd" d="M3.29057 8.35995C6.37757 7.06162 8.43605 6.20568 9.46602 5.79213C12.4068 4.61137 13.0179 4.40626 13.4161 4.39949C13.5037 4.398 13.6996 4.41895 13.8265 4.51833C13.9336 4.60225 13.9631 4.7156 13.9772 4.79516C13.9913 4.87472 14.0089 5.05596 13.9949 5.19758C13.8355 6.81395 13.146 10.7365 12.7952 12.5468C12.6467 13.3129 12.3544 13.5697 12.0715 13.5949C11.4565 13.6495 10.9896 13.2025 10.394 12.8257C9.46199 12.2359 8.93547 11.8688 8.0308 11.2933C6.98531 10.6282 7.66306 10.2627 8.25888 9.66526C8.41482 9.50892 11.1243 7.1299 11.1767 6.91409C11.1833 6.8871 11.1893 6.78649 11.1274 6.73336C11.0655 6.68024 10.9741 6.6984 10.9082 6.71285C10.8147 6.73333 9.32583 7.68331 6.44155 9.56279C6.01893 9.84292 5.63614 9.97942 5.29318 9.97226C4.91508 9.96438 4.18778 9.7659 3.64711 9.59624C2.98395 9.38814 2.45689 9.27812 2.50279 8.92472C2.52669 8.74064 2.78928 8.55239 3.29057 8.35995Z" fill="white"/>
</g>
</g>
</svg>
