<svg width="224" height="108" viewBox="0 0 224 108" fill="none" xmlns="http://www.w3.org/2000/svg">
<path d="M38.2391 32.481C36.6907 32.481 35.4004 33.6852 35.4004 35.2336C35.4004 36.782 36.6047 38.0723 38.153 38.0723C39.7014 38.0723 40.9917 36.868 40.9917 35.3196C40.9917 33.7713 39.7014 32.481 38.2391 32.481ZM141.807 32.481C140.259 32.481 138.969 33.7713 138.969 35.3196C138.969 36.868 140.259 38.1583 141.807 38.1583C143.356 38.1583 144.646 36.868 144.646 35.3196C144.646 33.7713 143.356 32.481 141.807 32.481ZM46.7551 33.3412V37.2981H133.291V33.3412H46.7551ZM58.4538 44.0937C55.3571 44.0937 53.0346 45.9001 51.6582 46.9324L51.4862 47.1044C51.1421 45.7281 50.0238 44.7819 48.6475 44.6958H46.7551V66.459H51.6582V50.5452C52.6045 50.0291 54.841 48.6528 56.9055 48.6528C59.6581 48.6528 60.1742 50.1151 60.1742 53.2118V66.459H65.0774V52.6097C65.0774 48.1367 64.6473 44.0937 58.4538 44.0937ZM126.668 44.0937C123.571 44.0937 121.249 45.9001 119.872 46.9324C119.786 47.0184 119.786 47.0184 119.7 47.1044C119.356 45.7281 118.238 44.7819 116.862 44.6958H114.969V66.459H119.872V50.5452C120.819 50.0291 123.055 48.6528 125.12 48.6528C127.872 48.6528 128.388 50.1151 128.388 53.2118V66.459H133.291V52.6097C133.291 48.1367 132.861 44.0937 126.668 44.0937ZM159.442 44.1797C152.99 44.1797 148.947 48.5668 148.947 55.4484C148.947 63.6203 152.044 66.8891 160.216 66.8891C161.936 66.8891 163.657 66.631 165.377 66.2009L164.689 62.158C163.313 62.416 161.936 62.5881 160.56 62.6741C155.227 62.6741 154.022 60.5236 154.022 55.5344C154.022 50.4592 156.431 48.4807 159.528 48.4807C161.162 48.4807 162.71 48.8248 164.173 49.427L165.549 45.556C163.657 44.5238 161.506 44.0077 159.442 44.1797ZM178.108 44.1797C172.087 44.1797 168.044 48.4807 168.044 55.7925C168.044 62.7601 171.571 66.9751 177.764 66.9751C183.613 66.9751 188 63.1042 188 55.6204C188 48.3087 184.818 44.1797 178.108 44.1797ZM102.41 44.1797C96.7329 44.1797 92.5179 47.1044 92.5179 55.9645C92.5179 64.4805 96.5608 66.8891 102.926 66.8891C105.335 66.9751 107.743 66.631 110.066 66.0289L109.292 61.9859C107.485 62.33 105.679 62.502 103.787 62.502C100.174 62.502 97.421 61.8139 97.335 57.0828H110.582V55.1903C110.582 48.3087 108.26 44.1797 102.41 44.1797ZM80.0449 44.3518C74.2816 44.3518 69.4644 48.3087 69.4644 55.7064C69.4644 65.5988 74.6256 66.8031 79.2707 66.8031C80.7331 66.8031 82.0234 66.2869 83.1417 65.3407C83.1417 65.7708 83.1417 66.1149 83.1417 66.545C83.1417 70.4159 80.9911 70.932 77.7224 70.932C75.6579 70.846 73.5934 70.5879 71.6149 70.0718L70.8408 74.2008C73.3353 74.975 75.916 75.3191 78.4966 75.3191C82.7976 75.3191 87.9588 73.0825 87.9588 67.0611V45.212C85.3782 44.6958 82.7116 44.4378 80.0449 44.3518ZM35.7445 44.6958V66.459H40.6476V44.6958H35.7445ZM139.399 44.6958V66.459H144.302V44.6958H139.399ZM101.98 48.1367C104.045 48.1367 105.679 49.9431 105.593 53.2979H97.507C97.6791 49.685 99.8296 48.1367 101.98 48.1367ZM178.022 48.3087C182.065 48.3087 183.011 51.8355 183.011 55.5344C183.011 59.4913 182.065 62.6741 178.108 62.6741C174.237 62.6741 172.947 59.6634 172.947 55.5344C172.947 51.8355 173.979 48.3087 178.022 48.3087ZM79.9589 48.6528C80.9911 48.6528 82.1094 48.7388 83.1417 48.9108V61.6418C82.0234 62.33 80.8191 62.6741 79.5288 62.7601C76.3461 62.7601 74.2816 60.9537 74.2816 55.7925C74.2816 51.6635 75.916 48.6528 79.9589 48.6528Z" fill="#404B52"/>
<rect x="0.5" y="0.5" width="222.333" height="107" stroke="#1E1E1E" stroke-opacity="0.2"/>
</svg>
