<svg width="224" height="108" viewBox="0 0 224 108" fill="none" xmlns="http://www.w3.org/2000/svg">
<path fill-rule="evenodd" clip-rule="evenodd" d="M145.045 37.5626C148.405 37.0676 151.481 37.8706 153.553 39.8186C155.468 41.5806 156.441 44.0836 156.19 46.7416C155.75 51.6566 153.333 55.6136 146.552 62.1356L135.47 62.5066C135.47 62.5066 143.162 55.5826 146.081 52.2136C147.965 50.0196 148.781 47.6696 147.996 46.0936C147.494 45.1036 146.396 44.6096 145.046 44.6716V37.5616L145.045 37.5626ZM122.348 41.4566V47.8556L131.954 46.8356V40.1276L122.348 41.4576V41.4566ZM114.5 70.4196V42.5396L121.092 41.6106V70.4206H114.5V70.4196ZM88.4123 46.1546V51.5646L95.6953 50.7606V45.1656L88.4123 46.1556V46.1546ZM82.4163 70.4196V46.9896L87.4703 46.2796V70.4196H82.4163ZM67.5983 49.0296V53.8206L80.6583 52.3996V47.2366L67.5983 49.0296ZM71.7733 54.0986V70.4196H76.5453V53.6046L71.7733 54.0986ZM88.4123 61.0546V55.5516L93.1833 55.1496V60.8066L88.4123 61.0546ZM88.4123 65.0106V70.4196H95.6953V64.7926L88.4123 65.0096V65.0106ZM122.348 59.2306V52.7086L128.658 52.1526V58.8906L122.348 59.2306ZM122.348 64.0226V70.4196H131.954V63.7116L122.348 64.0216V64.0226ZM97.6103 70.4196V44.8876L103.355 44.0836V70.4196H97.6103ZM104.422 64.5466V70.4196H112.742V64.2996L104.422 64.5466ZM134.089 63.6506L134.12 70.4206H156.598V63.0006L134.089 63.6506ZM134.403 51.5016C134.026 43.7746 137.228 39.0456 143.758 37.6856L143.789 44.9186C142.409 45.4746 141.059 46.5266 141.372 50.8836L134.402 51.5016H134.403Z" fill="#1F2229"/>
<rect x="1.16663" y="0.5" width="222.333" height="107" stroke="#1E1E1E" stroke-opacity="0.2"/>
</svg>
