<svg width="224" height="108" viewBox="0 0 224 108" fill="none" xmlns="http://www.w3.org/2000/svg">
<path d="M84.4844 59.6406H93.6262V62.6067H89.2762V83.5599H84.4844" fill="#0070BA"/>
<path d="M99.0397 74.572L99.884 62.6067H100.158L100.974 74.572M93.7559 83.5431H98.447L98.8943 77.1904H101.131L101.573 83.5431H106.258L103.764 59.6406H96.2328L93.7559 83.5431Z" fill="#0070BA"/>
<path d="M113.124 75.1888V79.6743C113.117 79.7771 113.131 79.8803 113.166 79.9771C113.201 80.074 113.256 80.1624 113.327 80.2369C113.398 80.3113 113.484 80.37 113.579 80.4093C113.674 80.4485 113.776 80.4675 113.879 80.4649C113.98 80.4627 114.079 80.4405 114.172 80.3995C114.264 80.3585 114.348 80.2996 114.417 80.2261C114.487 80.1526 114.542 80.066 114.578 79.9713C114.614 79.8766 114.631 79.7757 114.628 79.6743V74.1122C114.628 73.3609 114.488 72.5423 112.71 72.5423H110.759V69.907H112.783C114.147 69.907 114.628 69.6042 114.628 68.1352V63.3749C114.63 63.274 114.613 63.1737 114.576 63.0796C114.54 62.9856 114.485 62.8996 114.415 62.8267C114.346 62.7538 114.263 62.6954 114.171 62.6548C114.078 62.6141 113.979 62.5921 113.879 62.5899C113.776 62.5874 113.675 62.6062 113.58 62.6451C113.486 62.6841 113.4 62.7423 113.329 62.8161C113.258 62.8899 113.203 62.9776 113.168 63.0738C113.133 63.17 113.118 63.2726 113.124 63.3749V67.2998H108.332V63.9356C108.332 62.2535 108.533 59.6631 111.888 59.6631H115.864C119.218 59.6631 119.42 62.2591 119.42 63.9356V67.7595C119.42 70.3556 117.608 71.0789 116.171 71.006V71.2471C119.386 71.1798 119.42 73.6412 119.42 74.4935V79.3155C119.42 80.9976 119.224 83.588 115.864 83.588H111.888C108.533 83.588 108.332 80.9864 108.332 79.3155V75.2112" fill="#0070BA"/>
<path d="M122.578 59.6406H133.671V83.5599H128.88V62.6067H127.37V83.5599H122.578" fill="#0070BA"/>
<path d="M141.612 72.8002V62.6067H142.233C142.742 62.6067 143.116 63.0497 143.116 63.801V71.6003C143.116 72.3516 142.742 72.8002 142.233 72.8002M136.82 83.5599H141.612V75.4298H144.352C147.707 75.4298 147.908 72.8282 147.908 71.1573V63.9131C147.908 62.231 147.707 59.6406 144.352 59.6406H136.82V83.5599Z" fill="#0070BA"/>
<path d="M157.364 79.6911C157.367 79.7929 157.35 79.8943 157.313 79.9894C157.277 80.0845 157.222 80.1713 157.152 80.2449C157.081 80.3184 156.997 80.3773 156.904 80.4179C156.811 80.4586 156.711 80.4803 156.609 80.4817C156.506 80.4843 156.404 80.4653 156.309 80.4261C156.214 80.3868 156.129 80.3281 156.057 80.2537C155.986 80.1792 155.932 80.0908 155.897 79.9939C155.862 79.897 155.847 79.7939 155.854 79.6911V63.3917C155.848 63.2894 155.863 63.1868 155.898 63.0906C155.934 62.9944 155.989 62.9067 156.06 62.8329C156.131 62.7591 156.216 62.7008 156.311 62.6619C156.405 62.623 156.507 62.6042 156.609 62.6067C156.71 62.6082 156.81 62.6297 156.903 62.67C156.995 62.7103 157.079 62.7686 157.15 62.8416C157.22 62.9146 157.275 63.0007 157.312 63.0951C157.348 63.1895 157.366 63.2903 157.364 63.3917M151.062 79.293C151.062 80.9751 151.269 83.5599 154.624 83.5599H158.594C161.949 83.5599 162.156 80.9639 162.156 79.293V63.9131C162.156 62.231 161.949 59.6406 158.594 59.6406H154.624C151.269 59.6406 151.062 62.2366 151.062 63.9131V79.293Z" fill="#0070BA"/>
<path d="M177.766 59.6406H184V83.5599H179.209V68.5613H179.035L176.57 83.5599H172.734L170.274 68.5613H170.1V83.5599H165.309V59.6406H171.537L174.652 76.4503" fill="#0070BA"/>
<path d="M78.2675 26.9291C76.8026 20.5147 73.1234 15.2946 72.6146 14.4424C70.3771 17.8206 68.6195 21.4948 67.3923 25.3591C65.9026 30.4594 65.4575 35.8093 66.0839 41.0867C66.5643 44.5463 67.4598 47.9351 68.751 51.1792C69.7872 53.6422 71.1004 55.9786 72.6649 58.143C74.2641 56.0685 77.9432 49.8784 79.0894 41.7819C79.7324 37.2964 79.7548 33.3715 78.2898 26.9347M72.637 56.5507C71.3766 54.0978 70.7101 51.3817 70.6912 48.6224C70.6906 45.8823 71.3688 43.1849 72.6649 40.7727C73.8364 43.106 74.4816 45.6691 74.5548 48.2804C74.6313 51.1563 73.971 54.0037 72.637 56.5507ZM77.8649 37.8178C77.8337 40.0263 77.5922 42.2267 77.1436 44.3892C77.2385 41.2549 76.9701 38.1202 76.344 35.048C75.7346 32.1211 73.9957 27.2263 72.609 24.9554C71.3286 27.1141 69.763 31.3474 68.9299 35.0143C68.3299 38.1287 68.0452 41.2959 68.08 44.4677C67.5787 41.4429 67.3727 38.3763 67.465 35.3115C67.6179 32.5041 68.0658 29.7207 68.8013 27.0076C69.7349 23.833 71.0117 20.7702 72.609 17.8738C74.2554 20.7084 75.5545 23.7318 76.4782 26.8786C77.4438 30.441 77.9104 34.1208 77.8649 37.8122" fill="#0070BA"/>
<path d="M75.1085 59.6403H63.9258V67.1144V67.0864C64.55 66.4605 65.2909 65.9641 66.1064 65.6253C66.9218 65.2866 67.7958 65.1123 68.6785 65.1123C69.5611 65.1123 70.4351 65.2866 71.2506 65.6253C72.066 65.9641 72.807 66.4605 73.4311 67.0864C74.0552 67.7123 74.5503 68.4553 74.8881 69.273C75.2259 70.0907 75.3997 70.9672 75.3997 71.8523C75.3997 72.7374 75.2259 73.6139 74.8881 74.4316C74.5503 75.2493 74.0552 75.9924 73.4311 76.6182H73.3976L73.3584 76.6519C70.9853 78.938 67.8573 80.2699 64.569 80.3946C61.2806 80.5193 58.0612 79.428 55.5227 77.3282C52.9843 75.2283 51.3037 72.2663 50.8005 69.0052C50.2973 65.7441 51.0066 62.4113 52.7935 59.6403C53.2885 58.9216 53.8501 58.2514 54.4709 57.6386C55.7203 56.3901 57.2029 55.4008 58.8339 54.7273C60.4649 54.0538 62.2123 53.7094 63.9762 53.7138V35.7715C60.0219 35.7751 56.1307 36.7652 52.6531 38.6525C49.1755 40.5398 46.2207 43.265 44.055 46.5827C41.8893 49.9004 40.5807 53.7062 40.2471 57.6573C39.9135 61.6085 40.5653 65.5808 42.144 69.2164C43.7226 72.8519 46.1783 76.0366 49.29 78.4834C52.4017 80.9301 56.0715 82.5622 59.9688 83.2325C63.8661 83.9028 67.8685 83.5902 71.6154 82.323C75.3623 81.0558 78.7359 78.8738 81.4323 75.9734V59.6403" fill="#0070BA"/>
<rect x="0.5" y="0.5" width="222.333" height="107" stroke="#1E1E1E" stroke-opacity="0.2"/>
</svg>
