<svg width="224" height="108" viewBox="0 0 224 108" fill="none" xmlns="http://www.w3.org/2000/svg">
<path d="M41.999 81H181.999V27H41.999V81Z" fill="#8C0014"/>
<path d="M153.462 56.7874V58.1663C153.462 59.3252 154.501 60.3897 156.132 60.3897C158.471 60.3897 159.41 58.609 159.602 57.8631C162.131 57.8631 164.12 57.8617 164.835 57.8617C164.056 60.3037 160.84 63.2039 154.926 63.2039C147.219 63.2039 144.803 58.9995 144.803 55.7863C144.803 52.3588 147.594 48.2799 154.914 48.2799C161.242 48.2799 165.024 51.9739 165.024 55.7877C165.024 56.425 164.971 56.7874 164.971 56.7874H153.462ZM153.462 54.4695H156.393V52.5788C156.393 52.0077 155.941 51.104 154.918 51.104C153.969 51.104 153.462 51.9697 153.462 52.5703V54.4695ZM131.987 59.5847H129.904V62.5427H143.981V59.5847H141.87V44.5436H129.904V47.503H131.987V59.5847ZM117.485 56.7874V58.1663C117.485 59.3252 118.526 60.3897 120.157 60.3897C122.495 60.3897 123.436 58.609 123.626 57.8631C126.156 57.8631 128.146 57.8617 128.861 57.8617C128.081 60.3037 124.864 63.2039 118.952 63.2039C111.243 63.2039 108.828 58.9995 108.828 55.7863C108.828 52.3588 111.617 48.2799 118.941 48.2799C125.266 48.2799 129.051 51.9739 129.051 55.7877C129.051 56.425 128.997 56.7874 128.997 56.7874H117.485ZM117.485 54.4695H120.418V52.5788C120.418 52.0077 119.965 51.104 118.942 51.104C117.994 51.104 117.485 51.9697 117.485 52.5703V54.4695ZM104.207 46.4005L102.845 43.7893L98.544 46.0226L99.9062 48.6592L104.207 46.4005ZM105.916 49.0102H94.3524V51.9697H96.4608V59.5847H94.3524V62.5427H108.026V59.5847H105.916V49.0102ZM81.9316 44.5436H92.4554V47.5045H90.3456V59.5847H92.4554V62.5427H78.7774V59.5847H80.8886V51.7554L73.1172 62.5427L65.3164 51.7554V59.5847H67.4276V62.5427H59.8662V59.5847H61.9508V47.5045H59.8662V44.5436H71.8068L76.8818 51.5664L81.9316 44.5436Z" fill="white"/>
<rect x="1.16699" y="0.5" width="222.333" height="107" stroke="#1E1E1E" stroke-opacity="0.2"/>
</svg>
