<svg width="224" height="108" viewBox="0 0 224 108" fill="none" xmlns="http://www.w3.org/2000/svg">
<path fill-rule="evenodd" clip-rule="evenodd" d="M135.905 53.2999C143.108 50.4714 142.859 37.4736 131.478 37.4736L91.0369 37.4868L90.7225 42.2886C90.7225 42.2886 96.7206 45.1829 97.6112 45.6038C97.5588 46.6431 96.8516 59.1805 96.7992 59.9962C96.105 60.4171 89.5831 64.4427 89.5831 64.4427L89.2689 69.5735H129.802C142.492 69.5866 143.802 56.2994 135.905 53.2999ZM119.128 60.8381C119.128 60.8381 115.619 60.8381 114.466 60.8381C114.518 59.7988 114.676 57.115 114.728 56.1679C115.802 56.1679 119.469 56.1679 119.469 56.1679C122.651 56.181 122.429 60.8381 119.128 60.8381ZM119.744 49.2479C119.731 49.2479 115.304 49.2479 115.082 49.2479C115.134 48.2481 115.252 45.959 115.291 45.0381C115.343 45.0381 119.953 45.0381 119.953 45.0381C122.926 45.0381 122.939 49.2479 119.744 49.2479Z" fill="#1D1D1B"/>
<path fill-rule="evenodd" clip-rule="evenodd" d="M75.2684 37H57.4183C48.3032 37 43.7457 44.354 43.379 49.9057C43.379 49.932 43.0647 54.7207 43.0647 54.7207C42.3837 60.2987 47.046 69.8234 55.9252 69.8234H73.6314C82.2095 69.8628 87.7099 64.6401 88.5088 55.4968L88.8363 50.7477C89.1767 45.8143 86.5444 37 75.2684 37ZM68.7727 58.1674C68.7072 59.7988 67.725 61.509 65.9308 61.5354H64.1366C62.6699 61.509 62.0543 60.325 62.146 58.2464C62.146 58.2596 62.7615 47.4719 62.7615 47.4719C62.8139 45.8011 64.058 44.2488 65.3808 44.2488H67.1619C68.6155 44.2356 69.5062 45.4459 69.5062 47.2877L68.7727 58.1674Z" fill="#1D1D1B"/>
<path d="M144.941 37.9082L144.626 42.6969C144.626 42.6969 151.842 46.4594 152.707 46.9067C152.654 47.8934 152.013 58.6415 151.973 59.4835C151.214 59.8913 143.618 64.0616 143.618 64.0616L143.382 69.1529H178.205L178.52 64.2327C178.52 64.2327 171.801 59.7861 171.067 59.3124C171.107 58.4311 171.644 47.6697 171.696 46.7751C172.495 46.3805 179.764 42.7495 179.764 42.7495L179.999 37.9214H144.941V37.9082Z" fill="#1D1D1B"/>
<path d="M177.473 58.9571L176.884 57.5626H176.385V58.9571H176.058V55.9707H176.83C177.329 55.9707 177.721 56.0365 177.721 56.6285V56.839C177.721 57.1942 177.564 57.4179 177.236 57.5099L177.852 58.9571H177.473ZM177.381 56.6548C177.381 56.1944 177.067 56.2471 176.726 56.2471H176.385V57.2731H176.713C177.067 57.2731 177.381 57.3126 177.381 56.8127V56.6548Z" fill="#1D1D1B"/>
<path d="M179.227 57.4436C179.227 58.7724 178.153 59.8511 176.83 59.8511C175.507 59.8511 174.433 58.7724 174.433 57.4436C174.433 56.1149 175.507 55.0361 176.83 55.0361C178.153 55.0361 179.227 56.1149 179.227 57.4436Z" stroke="#1D1D1B" stroke-width="0.5404"/>
<path d="M178.441 39.4072C178.401 40.1571 178.349 41.3279 178.323 41.7884C177.708 42.091 170.124 45.814 170.124 45.814L169.418 60.101C169.418 60.101 176.399 64.6398 176.974 65.0213C176.948 65.508 176.857 66.9421 176.804 67.6656C175.665 67.6656 146.198 67.6656 144.941 67.6656C144.98 66.8763 145.045 65.4554 145.072 64.995C145.661 64.6793 153.532 60.4169 153.532 60.4169L154.37 46.0377C154.37 46.0377 146.853 42.1699 146.172 41.8279C146.211 41.3148 146.29 40.1176 146.329 39.4204C147.468 39.4072 177.171 39.4072 178.441 39.4072Z" fill="#FF7E21"/>
<path fill-rule="evenodd" clip-rule="evenodd" d="M134.006 53.9974L132.028 53.4711L133.953 52.7739C141.863 49.9586 141.038 38.9736 131.504 38.9736C131.504 38.9736 93.5906 38.9868 92.4381 38.9868C92.3858 39.6709 92.3203 40.8417 92.281 41.3811C92.9882 41.71 99.2875 44.6963 99.2875 44.6963L98.3838 60.8909C98.3838 60.8909 91.5738 65.0218 91.0369 65.3507C91.0107 65.7981 90.919 67.2977 90.8665 68.1003C92.1761 68.1003 129.815 68.1003 129.815 68.1003C140.672 68.0871 142.544 56.2996 134.006 53.9974ZM119.128 62.2328H112.999L113.405 54.7867H119.456C124.511 54.7867 124.262 62.2197 119.128 62.2328ZM119.809 50.6427H113.628L113.981 43.6439H119.862C124.982 43.6439 124.537 50.6427 119.809 50.6427Z" fill="#FF7E21"/>
<path fill-rule="evenodd" clip-rule="evenodd" d="M75.2548 38.501H57.4177C50.6076 38.501 45.6048 43.1449 44.9762 50.0253L44.675 54.8272C44.0726 60.6025 48.4991 68.3249 55.9248 68.3249H73.6308C84.1865 68.3776 86.4652 60.221 86.8974 55.3666L87.2117 50.6569C87.6046 46.1839 85.4175 38.501 75.2548 38.501ZM70.9592 47.4731C70.9592 47.4731 70.2259 58.2609 70.2259 58.2476C70.1211 60.8787 68.2876 62.8915 65.9564 62.931H64.136C61.687 62.8915 60.6001 60.7998 60.7048 58.1818C60.7048 58.1818 61.3204 47.3942 61.3204 47.4074C61.3858 44.9867 63.2848 42.8555 65.3802 42.8555H67.1482C69.1126 42.8424 71.0247 44.4473 70.9461 47.4468L70.9592 47.4731Z" fill="#FF7E21"/>
<rect x="0.833313" y="0.5" width="222.333" height="107" stroke="#1E1E1E" stroke-opacity="0.2"/>
</svg>
