<svg width="224" height="108" viewBox="0 0 224 108" fill="none" xmlns="http://www.w3.org/2000/svg">
<path d="M54.3113 29.8438L52.234 35.5102H81.0214L83.0988 29.8438H54.3113ZM51.1946 38.3421L49.1173 44.0072H77.9048L79.9822 38.3421H51.1946ZM48.0844 46.8404L46.0071 52.5057H74.7946L76.8707 46.8404H48.0844Z" fill="#00AAFF"/>
<path d="M107.208 54.665V54.7847C108.524 55.2655 109.781 56.1064 110.439 56.6463C112.473 58.328 113.371 60.5497 113.371 63.4323C113.371 68.1777 110.858 71.6003 106.729 72.6815C105.473 73.0415 104.157 73.1623 101.702 73.1623H89.1985V38.4512H100.268C102.542 38.4512 104.097 38.5707 105.473 38.9307C109.482 40.012 112.115 42.7749 112.115 47.1578C112.115 49.5004 111.277 51.483 109.901 52.8034C109.303 53.4038 108.465 54.1251 107.208 54.665ZM96.139 58.328V67.4564H100.926C102.361 67.4564 103.678 67.3368 104.636 66.4357C105.593 65.5344 106.012 64.394 106.012 62.8922C106.012 61.7518 105.712 60.6706 105.114 59.8902C104.097 58.6289 102.84 58.328 100.687 58.328H96.139ZM96.0788 52.3225H99.968C101.164 52.3225 101.763 52.3225 102.361 52.1425C103.978 51.6616 104.995 50.2217 104.995 48.2392C104.995 45.8979 103.917 44.8758 102.361 44.3962C101.702 44.2162 101.045 44.1558 99.7284 44.1558H96.0788V52.3225ZM123.782 73.1623V44.2753H113.79V38.4512H141.554L139.58 44.2753H130.723V73.1623H123.782ZM143.708 73.1623V38.4512H166.206L164.232 44.2753H150.589V51.9626H156.154C160.641 51.9626 162.975 53.0438 164.591 54.4247C165.848 55.5059 168.001 57.9076 168.001 62.6531C168.001 67.3368 165.787 69.9186 163.932 71.2403C161.779 72.7407 159.505 73.1623 154.897 73.1623H143.708ZM150.589 67.3368H155.795C157.769 67.3368 158.966 66.8561 159.804 65.7748C160.223 65.2347 160.821 64.273 160.821 62.4718C160.821 60.6706 160.223 59.4093 159.026 58.5079C158.309 57.968 157.35 57.6685 155.735 57.6685H150.589V67.3368Z" fill="#0A2896"/>
<rect x="0.833252" y="0.5" width="222.333" height="107" stroke="#1E1E1E" stroke-opacity="0.2"/>
</svg>
