<svg width="224" height="108" viewBox="0 0 224 108" fill="none" xmlns="http://www.w3.org/2000/svg">
<mask id="mask0_22_3428" style="mask-type:luminance" maskUnits="userSpaceOnUse" x="56" y="17" width="113" height="75">
<path d="M168.19 17H56V91.842H168.19V17Z" fill="white"/>
</mask>
<g mask="url(#mask0_22_3428)">
<path d="M137.628 54.422C137.628 75.088 120.874 91.842 100.207 91.842C79.5392 91.842 62.7852 75.088 62.7852 54.422C62.7852 33.753 79.5392 16.999 100.207 16.999C120.874 16.999 137.628 33.752 137.628 54.422Z" fill="#009FE3"/>
</g>
<mask id="mask1_22_3428" style="mask-type:luminance" maskUnits="userSpaceOnUse" x="56" y="17" width="113" height="75">
<path d="M168.19 17H56V91.842H168.19V17Z" fill="white"/>
</mask>
<g mask="url(#mask1_22_3428)">
<path d="M58.288 48.7781H56V60.4901H58.288V48.7781Z" fill="#009FE3"/>
</g>
<mask id="mask2_22_3428" style="mask-type:luminance" maskUnits="userSpaceOnUse" x="56" y="17" width="113" height="75">
<path d="M168.19 17H56V91.842H168.19V17Z" fill="white"/>
</mask>
<g mask="url(#mask2_22_3428)">
<path d="M146.598 50.507C146.201 50.359 145.708 50.26 145.2 50.26C143.997 50.26 143.273 50.804 143.273 51.724C143.273 52.448 143.784 52.909 144.706 53.04L146.088 53.237C148.227 53.55 149.23 54.603 149.23 56.594C149.23 58.829 147.519 60.18 144.707 60.18C143.785 60.18 142.931 60.032 142.189 59.719C141.612 59.489 141.284 59.258 140.609 58.633L142.088 57.153C142.518 57.531 142.715 57.664 143.109 57.829C143.636 58.042 144.213 58.141 144.903 58.141C146.267 58.141 146.993 57.647 146.993 56.675C146.993 55.853 146.564 55.424 145.595 55.294L144.179 55.097C142.123 54.817 141.071 53.715 141.071 51.857C141.071 49.635 142.667 48.27 145.264 48.27C146.039 48.27 146.795 48.401 147.436 48.649C147.979 48.863 148.292 49.076 148.935 49.635L147.485 51.067C147.106 50.737 146.926 50.639 146.598 50.507Z" fill="#009FE3"/>
</g>
<mask id="mask3_22_3428" style="mask-type:luminance" maskUnits="userSpaceOnUse" x="56" y="17" width="113" height="75">
<path d="M168.19 17H56V91.842H168.19V17Z" fill="white"/>
</mask>
<g mask="url(#mask3_22_3428)">
<path d="M154.908 48.3679C157.161 48.3679 158.773 49.8819 158.773 52.0209C158.773 54.1599 157.176 55.6729 154.908 55.6729H152.654V60.0809H150.367V48.3679H154.908ZM154.793 53.6169C155.812 53.6169 156.487 52.9919 156.487 52.0209C156.487 51.0499 155.811 50.4089 154.793 50.4089H152.654V53.6169H154.793Z" fill="#009FE3"/>
</g>
<mask id="mask4_22_3428" style="mask-type:luminance" maskUnits="userSpaceOnUse" x="56" y="17" width="113" height="75">
<path d="M168.19 17H56V91.842H168.19V17Z" fill="white"/>
</mask>
<g mask="url(#mask4_22_3428)">
<path d="M167.466 54.7029C167.977 55.2449 168.191 55.9029 168.191 56.7249C168.191 58.7819 166.809 60.0809 164.607 60.0809H159.703V48.3679H164.409C166.613 48.3679 168.026 49.6189 168.026 51.5929C168.026 52.7129 167.55 53.5339 166.581 54.0769C167.039 54.3239 167.22 54.4559 167.466 54.7029ZM164.228 53.1059C165.165 53.1059 165.741 52.5959 165.741 51.7569C165.741 50.9179 165.165 50.4079 164.228 50.4079H161.99V53.1059H164.228ZM164.375 58.0409C165.312 58.0409 165.905 57.4819 165.905 56.5949C165.905 55.7049 165.311 55.1629 164.375 55.1629H161.989V58.0409H164.375Z" fill="#009FE3"/>
</g>
<mask id="mask5_22_3428" style="mask-type:luminance" maskUnits="userSpaceOnUse" x="56" y="17" width="113" height="75">
<path d="M168.19 17H56V91.842H168.19V17Z" fill="white"/>
</mask>
<g mask="url(#mask5_22_3428)">
<path d="M70.3368 48.6621H68.0508V60.3751H70.3368V48.6621Z" fill="white"/>
</g>
<mask id="mask6_22_3428" style="mask-type:luminance" maskUnits="userSpaceOnUse" x="56" y="17" width="113" height="75">
<path d="M168.19 17H56V91.842H168.19V17Z" fill="white"/>
</mask>
<g mask="url(#mask6_22_3428)">
<path d="M78.9982 60.3751L74.3592 53.1861V60.3751H72.0742V48.6621H74.1142L78.7522 55.8351V48.6621H81.0382V60.3751H78.9982Z" fill="white"/>
</g>
<mask id="mask7_22_3428" style="mask-type:luminance" maskUnits="userSpaceOnUse" x="56" y="17" width="113" height="75">
<path d="M168.19 17H56V91.842H168.19V17Z" fill="white"/>
</mask>
<g mask="url(#mask7_22_3428)">
<path d="M87.2948 60.3751H85.5837L81.7188 48.6621H84.0868L86.4397 56.2951L88.7917 48.6621H91.1777L87.2948 60.3751Z" fill="white"/>
</g>
<mask id="mask8_22_3428" style="mask-type:luminance" maskUnits="userSpaceOnUse" x="56" y="17" width="113" height="75">
<path d="M168.19 17H56V91.842H168.19V17Z" fill="white"/>
</mask>
<g mask="url(#mask8_22_3428)">
<path d="M91.8555 60.3751V48.6621H99.5705V50.7031H94.1415V53.4501H98.7635V55.4901H94.1415V58.3351H99.5705V60.3751H91.8555Z" fill="white"/>
</g>
<mask id="mask9_22_3428" style="mask-type:luminance" maskUnits="userSpaceOnUse" x="56" y="17" width="113" height="75">
<path d="M168.19 17H56V91.842H168.19V17Z" fill="white"/>
</mask>
<g mask="url(#mask9_22_3428)">
<path d="M106.119 50.801C105.723 50.652 105.23 50.553 104.72 50.553C103.517 50.553 102.795 51.097 102.795 52.018C102.795 52.742 103.305 53.202 104.226 53.333L105.608 53.531C107.746 53.843 108.75 54.896 108.75 56.886C108.75 59.122 107.04 60.472 104.226 60.472C103.305 60.472 102.45 60.325 101.709 60.012C101.133 59.782 100.803 59.55 100.129 58.926L101.609 57.446C102.038 57.824 102.235 57.956 102.63 58.121C103.154 58.334 103.732 58.433 104.423 58.433C105.788 58.433 106.511 57.939 106.511 56.968C106.511 56.146 106.084 55.717 105.114 55.587L103.701 55.389C101.643 55.11 100.591 54.008 100.591 52.148C100.591 49.927 102.186 48.562 104.785 48.562C105.559 48.562 106.314 48.693 106.956 48.94C107.498 49.154 107.81 49.368 108.453 49.927L107.004 51.359C106.628 51.031 106.447 50.933 106.119 50.801Z" fill="white"/>
</g>
<mask id="mask10_22_3428" style="mask-type:luminance" maskUnits="userSpaceOnUse" x="56" y="17" width="113" height="75">
<path d="M168.19 17H56V91.842H168.19V17Z" fill="white"/>
</mask>
<g mask="url(#mask10_22_3428)">
<path d="M114.55 50.7021V60.3751H112.264V50.7021H109.203V48.6621H117.61V50.7021H114.55Z" fill="white"/>
</g>
<mask id="mask11_22_3428" style="mask-type:luminance" maskUnits="userSpaceOnUse" x="56" y="17" width="113" height="75">
<path d="M168.19 17H56V91.842H168.19V17Z" fill="white"/>
</mask>
<g mask="url(#mask11_22_3428)">
<path d="M123.928 48.6621H121.641V60.3751H123.928V48.6621Z" fill="#E6007D"/>
</g>
<mask id="mask12_22_3428" style="mask-type:luminance" maskUnits="userSpaceOnUse" x="56" y="17" width="113" height="75">
<path d="M168.19 17H56V91.842H168.19V17Z" fill="white"/>
</mask>
<g mask="url(#mask12_22_3428)">
<path d="M132.589 60.3751L127.95 53.1861V60.3751H125.664V48.6621H127.703L132.341 55.8351V48.6621H134.628V60.3751H132.589Z" fill="#E6007D"/>
</g>
<mask id="mask13_22_3428" style="mask-type:luminance" maskUnits="userSpaceOnUse" x="56" y="17" width="113" height="75">
<path d="M168.19 17H56V91.842H168.19V17Z" fill="white"/>
</mask>
<g mask="url(#mask13_22_3428)">
<path d="M82.8112 69.3959H82.2832C82.2252 69.3959 82.1672 69.4049 82.1082 69.4199C82.0482 69.4349 81.9912 69.4609 81.9382 69.4979C81.8832 69.5349 81.8332 69.5869 81.7872 69.6509C81.7402 69.7159 81.7022 69.7969 81.6742 69.8939L81.4402 70.7059H81.0352L81.2782 69.8509C81.3202 69.7059 81.3712 69.5899 81.4292 69.5019C81.4882 69.4129 81.5722 69.3499 81.6822 69.3099C81.5812 69.2849 81.4962 69.2469 81.4312 69.1939C81.3662 69.1409 81.3142 69.0819 81.2752 69.0159C81.2372 68.9519 81.2102 68.8829 81.1942 68.8129C81.1782 68.7409 81.1712 68.6739 81.1712 68.6129C81.1712 68.4929 81.1922 68.3799 81.2312 68.2739C81.2712 68.1679 81.3292 68.0749 81.4052 67.9969C81.4822 67.9189 81.5752 67.8569 81.6862 67.8119C81.7972 67.7659 81.9232 67.7439 82.0652 67.7439H83.1842V70.7069H82.8102L82.8112 69.3959ZM81.5472 68.6079C81.5472 68.6929 81.5632 68.7639 81.5932 68.8229C81.6242 68.8809 81.6682 68.9289 81.7232 68.9679C81.7792 69.0069 81.8432 69.0339 81.9172 69.0509C81.9912 69.0689 82.0702 69.0769 82.1552 69.0769H82.8112V68.0719H82.1172C81.9412 68.0719 81.8022 68.1189 81.7002 68.2139C81.5972 68.3099 81.5472 68.4409 81.5472 68.6079Z" fill="white"/>
</g>
<mask id="mask14_22_3428" style="mask-type:luminance" maskUnits="userSpaceOnUse" x="56" y="17" width="113" height="75">
<path d="M168.19 17H56V91.842H168.19V17Z" fill="white"/>
</mask>
<g mask="url(#mask14_22_3428)">
<path d="M84.7812 70.7069V67.7439H85.1552V70.0769L85.1692 70.0859L86.6942 67.7439H87.0082V70.7069H86.6332V68.4799L86.6202 68.4769L85.1472 70.7069H84.7812Z" fill="white"/>
</g>
<mask id="mask15_22_3428" style="mask-type:luminance" maskUnits="userSpaceOnUse" x="56" y="17" width="113" height="75">
<path d="M168.19 17H56V91.842H168.19V17Z" fill="white"/>
</mask>
<g mask="url(#mask15_22_3428)">
<path d="M89.3344 70.7069V69.3749H88.0224V70.7069H87.6484V67.7439H88.0224V69.0469H89.3344V67.7439H89.7094V70.7069H89.3344Z" fill="white"/>
</g>
<mask id="mask16_22_3428" style="mask-type:luminance" maskUnits="userSpaceOnUse" x="56" y="17" width="113" height="75">
<path d="M168.19 17H56V91.842H168.19V17Z" fill="white"/>
</mask>
<g mask="url(#mask16_22_3428)">
<path d="M92.4194 69.8871C92.4194 70.0121 92.3974 70.1251 92.3534 70.2271C92.3104 70.3301 92.2504 70.4151 92.1754 70.4871C92.1004 70.5591 92.0134 70.6131 91.9154 70.6501C91.8174 70.6891 91.7134 70.7081 91.6034 70.7081H90.3594V67.7451H91.4794C91.6234 67.7451 91.7504 67.7641 91.8584 67.8031C91.9664 67.8411 92.0574 67.8951 92.1304 67.9631C92.2044 68.0311 92.2594 68.1121 92.2974 68.2081C92.3344 68.3041 92.3524 68.4071 92.3524 68.5211C92.3524 68.5811 92.3444 68.6421 92.3294 68.7061C92.3144 68.7701 92.2874 68.8321 92.2514 68.8911C92.2134 68.9481 92.1674 69.0021 92.1104 69.0521C92.0524 69.1021 91.9854 69.1411 91.9054 69.1691V69.1831C91.9904 69.2021 92.0654 69.2361 92.1314 69.2861C92.1974 69.3341 92.2514 69.3901 92.2934 69.4551C92.3364 69.5201 92.3684 69.5911 92.3894 69.6661C92.4084 69.7381 92.4194 69.8131 92.4194 69.8871ZM90.7334 68.0711V69.0341H91.4314C91.6134 69.0341 91.7494 68.9881 91.8394 68.8941C91.9304 68.8021 91.9764 68.6871 91.9764 68.5501C91.9764 68.4151 91.9304 68.3031 91.8394 68.2091C91.7494 68.1171 91.6134 68.0701 91.4314 68.0701L90.7334 68.0711ZM90.7334 69.3541V70.3641H91.4954C91.5894 70.3641 91.6714 70.3481 91.7414 70.3211C91.8104 70.2931 91.8674 70.2551 91.9114 70.2081C91.9554 70.1611 91.9894 70.1071 92.0114 70.0461C92.0344 69.9851 92.0454 69.9221 92.0454 69.8581C92.0454 69.7931 92.0344 69.7291 92.0114 69.6681C91.9904 69.6071 91.9554 69.5531 91.9114 69.5071C91.8674 69.4591 91.8104 69.4231 91.7414 69.3961C91.6714 69.3701 91.5894 69.3561 91.4954 69.3561H90.7334V69.3541Z" fill="white"/>
</g>
<mask id="mask17_22_3428" style="mask-type:luminance" maskUnits="userSpaceOnUse" x="56" y="17" width="113" height="75">
<path d="M168.19 17H56V91.842H168.19V17Z" fill="white"/>
</mask>
<g mask="url(#mask17_22_3428)">
<path d="M92.9023 70.7069V67.7439H94.7763V68.0889H93.2773V69.0469H94.5553V69.3749H93.2773V70.3629H94.7763V70.7069H92.9023Z" fill="white"/>
</g>
<mask id="mask18_22_3428" style="mask-type:luminance" maskUnits="userSpaceOnUse" x="56" y="17" width="113" height="75">
<path d="M168.19 17H56V91.842H168.19V17Z" fill="white"/>
</mask>
<g mask="url(#mask18_22_3428)">
<path d="M97.1433 70.1029C97.0693 70.3019 96.9493 70.4569 96.7813 70.5679C96.6143 70.6779 96.4103 70.7339 96.1693 70.7339C95.9933 70.7339 95.8383 70.7039 95.7073 70.6439C95.5763 70.5839 95.4643 70.5049 95.3763 70.4059C95.2873 70.3059 95.2213 70.1899 95.1783 70.0559C95.1353 69.9219 95.1133 69.7819 95.1133 69.6339V68.8179C95.1133 68.6719 95.1353 68.5339 95.1783 68.4029C95.2213 68.2709 95.2873 68.1539 95.3763 68.0529C95.4643 67.9509 95.5753 67.8719 95.7073 67.8129C95.8393 67.7539 95.9943 67.7229 96.1693 67.7229C96.4103 67.7229 96.6133 67.7799 96.7773 67.8939C96.9423 68.0059 97.0633 68.1589 97.1393 68.3489L96.7893 68.5059C96.7413 68.3779 96.6643 68.2769 96.5593 68.1989C96.4553 68.1219 96.3263 68.0859 96.1723 68.0859C96.0553 68.0859 95.9553 68.1059 95.8703 68.1479C95.7853 68.1899 95.7143 68.2469 95.6573 68.3159C95.6003 68.3859 95.5573 68.4649 95.5303 68.5569C95.5013 68.6479 95.4883 68.7399 95.4883 68.8329V69.6039C95.4883 69.7039 95.5023 69.7989 95.5303 69.8909C95.5583 69.9839 95.6013 70.0659 95.6573 70.1369C95.7143 70.2069 95.7853 70.2649 95.8703 70.3089C95.9553 70.3529 96.0563 70.3739 96.1723 70.3739C96.3263 70.3739 96.4553 70.3339 96.5623 70.2529C96.6683 70.1719 96.7463 70.0649 96.7943 69.9319L97.1433 70.1029Z" fill="white"/>
</g>
<mask id="mask19_22_3428" style="mask-type:luminance" maskUnits="userSpaceOnUse" x="56" y="17" width="113" height="75">
<path d="M168.19 17H56V91.842H168.19V17Z" fill="white"/>
</mask>
<g mask="url(#mask19_22_3428)">
<path d="M98.424 68.0711V70.7071H98.05V68.0711H97.207V67.7451H99.268V68.0711H98.424Z" fill="white"/>
</g>
<mask id="mask20_22_3428" style="mask-type:luminance" maskUnits="userSpaceOnUse" x="56" y="17" width="113" height="75">
<path d="M168.19 17H56V91.842H168.19V17Z" fill="white"/>
</mask>
<g mask="url(#mask20_22_3428)">
<path d="M99.5938 70.7069V67.7439H99.9688V70.0769L99.9818 70.0859L101.507 67.7439H101.822V70.7069H101.447V68.4799L101.434 68.4769L99.9608 70.7069H99.5938Z" fill="white"/>
</g>
<mask id="mask21_22_3428" style="mask-type:luminance" maskUnits="userSpaceOnUse" x="56" y="17" width="113" height="75">
<path d="M168.19 17H56V91.842H168.19V17Z" fill="white"/>
</mask>
<g mask="url(#mask21_22_3428)">
<path d="M104.527 68.6429C104.527 68.7449 104.506 68.8479 104.465 68.9539C104.423 69.0589 104.363 69.1519 104.285 69.2349C104.208 69.3179 104.111 69.3849 103.996 69.4369C103.881 69.4899 103.751 69.5159 103.606 69.5159H102.836V70.7069H102.461V67.7439H103.546C103.669 67.7439 103.788 67.7619 103.906 67.7959C104.024 67.8289 104.128 67.8819 104.219 67.9539C104.31 68.0269 104.384 68.1209 104.44 68.2329C104.498 68.3469 104.527 68.4829 104.527 68.6429ZM104.134 68.6299C104.134 68.4469 104.08 68.3119 103.969 68.2239C103.861 68.1339 103.722 68.0889 103.555 68.0889H102.836V69.1699H103.572C103.665 69.1699 103.747 69.1529 103.819 69.1209C103.891 69.0889 103.949 69.0469 103.996 68.9949C104.043 68.9439 104.078 68.8879 104.1 68.8229C104.123 68.7589 104.134 68.6949 104.134 68.6299Z" fill="white"/>
</g>
<mask id="mask22_22_3428" style="mask-type:luminance" maskUnits="userSpaceOnUse" x="56" y="17" width="113" height="75">
<path d="M168.19 17H56V91.842H168.19V17Z" fill="white"/>
</mask>
<g mask="url(#mask22_22_3428)">
<path d="M105.931 70.209C105.889 70.323 105.844 70.415 105.796 70.485C105.747 70.556 105.695 70.612 105.641 70.652C105.587 70.692 105.53 70.718 105.468 70.733C105.407 70.747 105.344 70.754 105.276 70.754H105.034V70.41H105.2C105.274 70.41 105.337 70.395 105.389 70.368C105.441 70.342 105.492 70.278 105.54 70.179L105.574 70.081L104.688 67.748H105.092L105.472 68.822L105.783 69.634H105.8L106.09 68.817L106.468 67.739H106.856L105.931 70.209Z" fill="white"/>
</g>
<mask id="mask23_22_3428" style="mask-type:luminance" maskUnits="userSpaceOnUse" x="56" y="17" width="113" height="75">
<path d="M168.19 17H56V91.842H168.19V17Z" fill="white"/>
</mask>
<g mask="url(#mask23_22_3428)">
<path d="M108.993 67.7229C109.165 67.7229 109.315 67.7489 109.44 67.8039C109.565 67.8579 109.669 67.9339 109.749 68.0299C109.83 68.1269 109.89 68.2419 109.928 68.3749C109.967 68.5089 109.986 68.6529 109.986 68.8099V69.6479C109.986 69.8129 109.964 69.9619 109.918 70.0949C109.873 70.2289 109.808 70.3429 109.722 70.4389C109.636 70.5349 109.534 70.6069 109.411 70.6579C109.289 70.7089 109.15 70.7349 108.994 70.7349C108.812 70.7349 108.658 70.7049 108.532 70.6429C108.406 70.5819 108.304 70.5009 108.225 70.3999C108.147 70.2989 108.092 70.1819 108.058 70.0509C108.024 69.9189 108.007 69.7809 108.007 69.6359V69.3749H107.598V70.7079H107.223V67.7449H107.598V69.0479H108.007V68.8219C108.007 68.6759 108.027 68.5389 108.067 68.4069C108.107 68.2749 108.167 68.1569 108.248 68.0549C108.329 67.9519 108.431 67.8709 108.554 67.8129C108.675 67.7529 108.822 67.7229 108.993 67.7229ZM108.999 68.0759C108.877 68.0759 108.776 68.0999 108.695 68.1479C108.614 68.1969 108.551 68.2569 108.504 68.3319C108.458 68.4049 108.425 68.4869 108.407 68.5769C108.388 68.6669 108.379 68.7539 108.379 68.8399V69.6149C108.379 69.7149 108.389 69.8109 108.409 69.9029C108.429 69.9959 108.462 70.0769 108.511 70.1489C108.559 70.2199 108.623 70.2769 108.702 70.3219C108.781 70.3649 108.88 70.3869 108.999 70.3869C109.109 70.3869 109.203 70.3669 109.281 70.3279C109.359 70.2879 109.423 70.2329 109.472 70.1649C109.522 70.0969 109.557 70.0159 109.578 69.9219C109.599 69.8289 109.61 69.7269 109.61 69.6139V68.8399C109.61 68.7459 109.599 68.6529 109.578 68.5629C109.557 68.4709 109.522 68.3899 109.476 68.3179C109.429 68.2449 109.367 68.1869 109.288 68.1419C109.209 68.0979 109.112 68.0759 108.999 68.0759Z" fill="white"/>
</g>
<mask id="mask24_22_3428" style="mask-type:luminance" maskUnits="userSpaceOnUse" x="56" y="17" width="113" height="75">
<path d="M168.19 17H56V91.842H168.19V17Z" fill="white"/>
</mask>
<g mask="url(#mask24_22_3428)">
<path d="M83.3032 74.4289C83.3032 74.5539 83.2812 74.6659 83.2372 74.7689C83.1942 74.8709 83.1342 74.9569 83.0582 75.0289C82.9832 75.0999 82.8962 75.1549 82.7992 75.1919C82.7012 75.2299 82.5962 75.2499 82.4862 75.2499H81.2422V72.2859H82.3622C82.5072 72.2859 82.6332 72.3059 82.7412 72.3449C82.8492 72.3829 82.9402 72.4359 83.0132 72.5039C83.0872 72.5719 83.1422 72.6539 83.1802 72.7489C83.2172 72.8459 83.2352 72.9479 83.2352 73.0629C83.2352 73.1219 83.2272 73.1839 83.2112 73.2479C83.1952 73.3109 83.1692 73.3729 83.1332 73.4319C83.0952 73.4899 83.0492 73.5439 82.9922 73.5939C82.9352 73.6439 82.8672 73.6829 82.7872 73.7109V73.7239C82.8722 73.7449 82.9472 73.7779 83.0132 73.8269C83.0782 73.8749 83.1332 73.9309 83.1752 73.9959C83.2172 74.0619 83.2492 74.1319 83.2702 74.2079C83.2932 74.2799 83.3032 74.3539 83.3032 74.4289ZM81.6172 72.6129V73.5759H82.3152C82.4972 73.5759 82.6322 73.5289 82.7232 73.4359C82.8142 73.3429 82.8602 73.2289 82.8602 73.0919C82.8602 72.9569 82.8142 72.8439 82.7232 72.7509C82.6322 72.6579 82.4972 72.6119 82.3152 72.6119L81.6172 72.6129ZM81.6172 73.8949V74.9049H82.3792C82.4732 74.9049 82.5542 74.8899 82.6242 74.8629C82.6932 74.8339 82.7502 74.7969 82.7942 74.7489C82.8382 74.7029 82.8722 74.6479 82.8942 74.5879C82.9172 74.5259 82.9282 74.4639 82.9282 74.3999C82.9282 74.3349 82.9172 74.2699 82.8942 74.2099C82.8722 74.1479 82.8382 74.0949 82.7942 74.0479C82.7502 74.0009 82.6932 73.9639 82.6242 73.9379C82.5542 73.9109 82.4732 73.8969 82.3792 73.8969H81.6172V73.8949Z" fill="white"/>
</g>
<mask id="mask25_22_3428" style="mask-type:luminance" maskUnits="userSpaceOnUse" x="56" y="17" width="113" height="75">
<path d="M168.19 17H56V91.842H168.19V17Z" fill="white"/>
</mask>
<g mask="url(#mask25_22_3428)">
<path d="M86.6716 74.6439C86.5976 74.8429 86.4766 74.9979 86.3096 75.1089C86.1426 75.2199 85.9386 75.2759 85.6966 75.2759C85.5206 75.2759 85.3666 75.2449 85.2346 75.1859C85.1026 75.1249 84.9926 75.0469 84.9036 74.9479C84.8146 74.8489 84.7486 74.7309 84.7056 74.5979C84.6626 74.4639 84.6406 74.3239 84.6406 74.1759V73.3589C84.6406 73.2129 84.6626 73.0759 84.7056 72.9449C84.7486 72.8109 84.8146 72.6949 84.9036 72.5939C84.9926 72.4929 85.1026 72.4139 85.2346 72.3539C85.3666 72.2949 85.5216 72.2639 85.6966 72.2639C85.9386 72.2639 86.1406 72.3219 86.3056 72.4349C86.4706 72.5479 86.5906 72.7009 86.6676 72.8909L86.3186 73.0479C86.2706 72.9199 86.1936 72.8189 86.0886 72.7409C85.9846 72.6639 85.8546 72.6259 85.7016 72.6259C85.5846 72.6259 85.4836 72.6469 85.3996 72.6909C85.3146 72.7319 85.2436 72.7889 85.1866 72.8579C85.1296 72.9279 85.0876 73.0069 85.0596 73.0989C85.0306 73.1889 85.0176 73.2819 85.0176 73.3749V74.1449C85.0176 74.2459 85.0306 74.3399 85.0596 74.4329C85.0876 74.5249 85.1296 74.6069 85.1866 74.6779C85.2436 74.7479 85.3146 74.8059 85.3996 74.8499C85.4836 74.8949 85.5856 74.9149 85.7016 74.9149C85.8546 74.9149 85.9846 74.8759 86.0906 74.7949C86.1966 74.7129 86.2746 74.6069 86.3226 74.4729L86.6716 74.6439Z" fill="white"/>
</g>
<mask id="mask26_22_3428" style="mask-type:luminance" maskUnits="userSpaceOnUse" x="56" y="17" width="113" height="75">
<path d="M168.19 17H56V91.842H168.19V17Z" fill="white"/>
</mask>
<g mask="url(#mask26_22_3428)">
<path d="M88.8568 75.2489L88.6188 74.5669H87.3878L87.1488 75.2489H86.7578L87.8428 72.2849H88.1658L89.2518 75.2489H88.8568ZM88.2258 73.4149L88.0088 72.7839H87.9948L87.7868 73.3979L87.4928 74.2479H88.5108L88.2258 73.4149Z" fill="white"/>
</g>
<mask id="mask27_22_3428" style="mask-type:luminance" maskUnits="userSpaceOnUse" x="56" y="17" width="113" height="75">
<path d="M168.19 17H56V91.842H168.19V17Z" fill="white"/>
</mask>
<g mask="url(#mask27_22_3428)">
<path d="M91.2876 75.2489V73.9169H89.9756V75.2489H89.6016V72.2849H89.9756V73.5889H91.2876V72.2849H91.6626V75.2489H91.2876Z" fill="white"/>
</g>
<mask id="mask28_22_3428" style="mask-type:luminance" maskUnits="userSpaceOnUse" x="56" y="17" width="113" height="75">
<path d="M168.19 17H56V91.842H168.19V17Z" fill="white"/>
</mask>
<g mask="url(#mask28_22_3428)">
<path d="M92.2852 75.2489V72.2949H92.6602V73.5799H93.1412C93.1862 73.5799 93.2342 73.5759 93.2852 73.5669C93.3372 73.5579 93.3862 73.5389 93.4342 73.5089C93.4822 73.4789 93.5282 73.4349 93.5712 73.3769C93.6132 73.3179 93.6502 73.2409 93.6822 73.1449L93.9542 72.2939H94.3242L94.0562 73.1569C94.0102 73.3019 93.9522 73.4239 93.8812 73.5219C93.8102 73.6189 93.7282 73.6829 93.6342 73.7149C93.7592 73.7539 93.8552 73.8249 93.9232 73.9269C93.9912 74.0299 94.0472 74.1529 94.0892 74.2979L94.3752 75.2469H93.9702L93.7102 74.3569C93.6822 74.2569 93.6472 74.1769 93.6082 74.1189C93.5682 74.0579 93.5252 74.0129 93.4782 73.9799C93.4322 73.9469 93.3812 73.9249 93.3272 73.9149C93.2732 73.9029 93.2182 73.8969 93.1612 73.8969H92.6582V75.2469H92.2852V75.2489Z" fill="white"/>
</g>
<mask id="mask29_22_3428" style="mask-type:luminance" maskUnits="userSpaceOnUse" x="56" y="17" width="113" height="75">
<path d="M168.19 17H56V91.842H168.19V17Z" fill="white"/>
</mask>
<g mask="url(#mask29_22_3428)">
<path d="M95.6662 72.6129V75.2489H95.2922V72.6129H94.4492V72.2849H96.5092V72.6129H95.6662Z" fill="white"/>
</g>
<mask id="mask30_22_3428" style="mask-type:luminance" maskUnits="userSpaceOnUse" x="56" y="17" width="113" height="75">
<path d="M168.19 17H56V91.842H168.19V17Z" fill="white"/>
</mask>
<g mask="url(#mask30_22_3428)">
<path d="M97.9614 73.822H96.7344V74.142H97.9614V73.822Z" fill="white"/>
</g>
<mask id="mask31_22_3428" style="mask-type:luminance" maskUnits="userSpaceOnUse" x="56" y="17" width="113" height="75">
<path d="M168.19 17H56V91.842H168.19V17Z" fill="white"/>
</mask>
<g mask="url(#mask31_22_3428)">
<path d="M100.194 75.2489V72.6129H98.8828V75.2489H98.5078V72.2849H100.569V75.2489H100.194Z" fill="white"/>
</g>
<mask id="mask32_22_3428" style="mask-type:luminance" maskUnits="userSpaceOnUse" x="56" y="17" width="113" height="75">
<path d="M168.19 17H56V91.842H168.19V17Z" fill="white"/>
</mask>
<g mask="url(#mask32_22_3428)">
<path d="M101.215 75.2489V72.2849H103.089V72.6309H101.59V73.5889H102.867V73.9169H101.59V74.9039H103.089V75.2489H101.215Z" fill="white"/>
</g>
<mask id="mask33_22_3428" style="mask-type:luminance" maskUnits="userSpaceOnUse" x="56" y="17" width="113" height="75">
<path d="M168.19 17H56V91.842H168.19V17Z" fill="white"/>
</mask>
<g mask="url(#mask33_22_3428)">
<path d="M104.424 72.6129V75.2489H104.049V72.6129H103.207V72.2849H105.267V72.6129H104.424Z" fill="white"/>
</g>
<mask id="mask34_22_3428" style="mask-type:luminance" maskUnits="userSpaceOnUse" x="56" y="17" width="113" height="75">
<path d="M168.19 17H56V91.842H168.19V17Z" fill="white"/>
</mask>
<g mask="url(#mask34_22_3428)">
<path d="M105.598 75.2489V72.2849H107.471V72.6309H105.973V73.5889H107.25V73.9169H105.973V74.9039H107.471V75.2489H105.598Z" fill="white"/>
</g>
<mask id="mask35_22_3428" style="mask-type:luminance" maskUnits="userSpaceOnUse" x="56" y="17" width="113" height="75">
<path d="M168.19 17H56V91.842H168.19V17Z" fill="white"/>
</mask>
<g mask="url(#mask35_22_3428)">
<path d="M109.971 73.1849C109.971 73.2869 109.95 73.3899 109.909 73.4959C109.868 73.5999 109.808 73.6939 109.73 73.7759C109.652 73.8589 109.556 73.9259 109.441 73.9779C109.326 74.0309 109.196 74.0579 109.051 74.0579H108.281V75.2489H107.906V72.2849H108.991C109.113 72.2849 109.233 72.3029 109.351 72.3369C109.469 72.3699 109.573 72.4239 109.664 72.4959C109.754 72.5689 109.829 72.6619 109.885 72.7749C109.941 72.8879 109.971 73.0239 109.971 73.1849ZM109.579 73.1709C109.579 72.9889 109.524 72.8539 109.415 72.7649C109.306 72.6749 109.167 72.6309 109 72.6309H108.281V73.7119H109.017C109.111 73.7119 109.193 73.6949 109.264 73.6629C109.335 73.6309 109.393 73.5889 109.441 73.5369C109.488 73.4859 109.523 73.4289 109.545 73.3639C109.568 73.3009 109.579 73.2369 109.579 73.1709Z" fill="white"/>
</g>
<mask id="mask36_22_3428" style="mask-type:luminance" maskUnits="userSpaceOnUse" x="56" y="17" width="113" height="75">
<path d="M168.19 17H56V91.842H168.19V17Z" fill="white"/>
</mask>
<g mask="url(#mask36_22_3428)">
<path d="M110.344 75.2489V72.2849H112.137V72.6309H110.719V73.5679H111.442C111.595 73.5679 111.732 73.5889 111.851 73.6299C111.971 73.6699 112.071 73.7269 112.153 73.7999C112.236 73.8719 112.299 73.9579 112.343 74.0599C112.386 74.1609 112.408 74.2699 112.408 74.3889C112.408 74.5389 112.381 74.6689 112.325 74.7799C112.27 74.8879 112.197 74.9779 112.106 75.0479C112.015 75.1179 111.911 75.1689 111.795 75.2009C111.679 75.2339 111.56 75.2499 111.438 75.2499L110.344 75.2489ZM112.017 74.4019C112.017 74.3389 112.006 74.2789 111.983 74.2199C111.961 74.1619 111.926 74.1109 111.879 74.0639C111.832 74.0199 111.771 73.9829 111.698 73.9549C111.624 73.9259 111.537 73.9119 111.438 73.9119H110.719V74.9039H111.438C111.605 74.9039 111.744 74.8639 111.853 74.7829C111.963 74.7019 112.017 74.5739 112.017 74.4019Z" fill="white"/>
</g>
<mask id="mask37_22_3428" style="mask-type:luminance" maskUnits="userSpaceOnUse" x="56" y="17" width="113" height="75">
<path d="M168.19 17H56V91.842H168.19V17Z" fill="white"/>
</mask>
<g mask="url(#mask37_22_3428)">
<path d="M113.917 74.751C113.874 74.864 113.828 74.957 113.781 75.027C113.732 75.098 113.68 75.154 113.627 75.193C113.572 75.233 113.516 75.259 113.454 75.275C113.393 75.289 113.329 75.296 113.261 75.296H113.018V74.951H113.184C113.258 74.951 113.321 74.936 113.373 74.91C113.425 74.883 113.476 74.82 113.523 74.721L113.558 74.623L112.672 72.29H113.077L113.456 73.363L113.766 74.175H113.784L114.073 73.358L114.452 72.28H114.841L113.917 74.751Z" fill="white"/>
</g>
<mask id="mask38_22_3428" style="mask-type:luminance" maskUnits="userSpaceOnUse" x="56" y="17" width="113" height="75">
<path d="M168.19 17H56V91.842H168.19V17Z" fill="white"/>
</mask>
<g mask="url(#mask38_22_3428)">
<path d="M117.276 73.1849C117.276 73.2869 117.256 73.3899 117.214 73.4959C117.174 73.5999 117.114 73.6939 117.035 73.7759C116.959 73.8589 116.861 73.9259 116.746 73.9779C116.632 74.0309 116.502 74.0579 116.356 74.0579H115.586V75.2489H115.211V72.2849H116.297C116.418 72.2849 116.538 72.3029 116.656 72.3369C116.774 72.3699 116.879 72.4239 116.968 72.4959C117.059 72.5689 117.134 72.6619 117.19 72.7749C117.247 72.8889 117.276 73.0239 117.276 73.1849ZM116.884 73.1709C116.884 72.9889 116.829 72.8539 116.72 72.7649C116.612 72.6749 116.472 72.6309 116.305 72.6309H115.586V73.7119H116.322C116.416 73.7119 116.498 73.6949 116.569 73.6629C116.639 73.6309 116.698 73.5889 116.745 73.5369C116.793 73.4859 116.828 73.4289 116.849 73.3639C116.873 73.3009 116.884 73.2369 116.884 73.1709Z" fill="white"/>
</g>
<mask id="mask39_22_3428" style="mask-type:luminance" maskUnits="userSpaceOnUse" x="56" y="17" width="113" height="75">
<path d="M168.19 17H56V91.842H168.19V17Z" fill="white"/>
</mask>
<g mask="url(#mask39_22_3428)">
<path d="M118.019 72.6309V75.2489H117.645V72.2859H119.518V72.6309H118.019Z" fill="white"/>
</g>
<rect x="0.5" y="0.5" width="222.333" height="107" stroke="#1E1E1E" stroke-opacity="0.2"/>
</svg>
