<svg width="224" height="108" viewBox="0 0 224 108" fill="none" xmlns="http://www.w3.org/2000/svg">
<g clip-path="url(#clip0_22_1678)">
<mask id="mask0_22_1678" style="mask-type:luminance" maskUnits="userSpaceOnUse" x="35" y="38" width="156" height="30">
<path d="M190.001 38.6367H35.0006V67.9247H190.001V38.6367Z" fill="white"/>
</mask>
<g mask="url(#mask0_22_1678)">
<path d="M100.246 48.9131C98.2104 48.9131 96.6875 49.6657 95.9341 50.9104H95.7713V49.2955H92.0494V66.4004H95.7713V60.9781H95.9341C96.6833 62.2228 98.2104 62.9754 100.246 62.9754C104.066 62.9754 107.095 59.8594 107.095 55.9422C107.095 52.0291 104.066 48.9131 100.246 48.9131ZM99.4931 59.591C97.4163 59.591 95.7713 57.9761 95.7713 55.9422C95.7713 53.8879 97.4163 52.2934 99.4931 52.2934C101.631 52.2934 103.256 53.8879 103.256 55.9422C103.256 57.9964 101.61 59.591 99.4931 59.591Z" fill="#3B175C"/>
<path d="M183.489 49.9169C181.36 49.9169 179.694 50.7224 178.68 52.1217H178.513C178.79 49.5915 180.224 48.363 183.31 47.9238L188.713 47.1427V43.7217L182.952 44.5394C177.63 45.2797 175.077 48.0945 175.077 53.1671C175.077 56.8362 175.312 57.9956 175.968 59.3827C176.998 61.6078 179.552 62.9746 182.639 62.9746C186.795 62.9746 190.004 60.0295 190.004 56.1732C190.001 52.4634 187.349 49.9169 183.489 49.9169ZM182.597 59.5739C180.48 59.5739 178.916 58.1298 178.916 56.1732C178.916 54.1963 180.459 52.7522 182.597 52.7522C184.694 52.7522 186.242 54.1963 186.242 56.1732C186.242 58.1298 184.674 59.5739 182.597 59.5739Z" fill="#3B175C"/>
<path d="M88.1471 45.2794L83.9571 53.7161L78.2481 45.2794H73.7975L82.0839 57.4909L81.8559 57.9546C81.4976 58.6949 81.0252 59.0936 79.9339 59.0936H77.0021V62.6082H80.3493C82.9024 62.6082 83.9326 61.9614 84.9995 59.834L92.325 45.2754H88.1471V45.2794Z" fill="#3B175C"/>
<path d="M128.596 49.3096L127.961 57.5753C127.863 58.8689 127.427 59.3407 126.397 59.3407H125.485V62.7048H127.704C130.2 62.7048 131.308 61.5659 131.487 59.1903L131.976 52.7672H136.553V62.591H140.315V49.3096H128.596Z" fill="#3B175C"/>
<path d="M150.014 52.3319C151.537 52.3319 152.746 53.1861 153.321 54.3292L156.647 53.0763C155.719 50.5502 153.084 48.915 149.937 48.915C145.718 48.915 142.534 51.9536 142.534 55.9482C142.534 59.9387 145.722 62.9814 149.937 62.9814C153.084 62.9814 155.719 61.3461 156.647 58.82L153.321 57.5671C152.746 58.7062 151.537 59.5644 150.014 59.5644C147.897 59.5644 146.37 58.0634 146.37 55.9523C146.37 53.8329 147.897 52.3319 150.014 52.3319Z" fill="#3B175C"/>
<path d="M168.399 49.292L162.62 57.7367V49.292H158.899V62.5936H163.015L168.758 54.21V62.5936H172.479V49.292H168.399Z" fill="#3B175C"/>
<path d="M119.878 50.9055H119.715C118.966 49.6608 117.439 48.9082 115.403 48.9082C111.583 48.9082 108.554 52.0242 108.554 55.9414C108.554 59.8546 111.583 62.9746 115.403 62.9746C117.439 62.9746 118.961 62.2221 119.715 60.9773H119.878V62.5922H123.599V49.2906H119.878V50.9055ZM116.16 59.5902C114.043 59.5902 112.397 57.9957 112.397 55.9414C112.397 53.8872 114.022 52.2926 116.16 52.2926C118.237 52.2926 119.882 53.8872 119.882 55.9414C119.878 57.9752 118.237 59.5902 116.16 59.5902Z" fill="#3B175C"/>
<path d="M63.306 54.33C63.306 49.5137 60.6795 45.2792 56.7338 42.8671L56.7867 46.1375C59.1321 48.1511 60.6185 51.0799 60.6185 54.33C60.6185 55.8147 60.3008 57.2303 59.743 58.5239C58.045 56.9131 56.8355 55.0175 56.0823 52.7802C55.1742 50.0711 54.9625 47.1057 54.9299 43.4813L54.934 41.9233C54.1196 41.5735 53.2685 41.2969 52.3971 41.1016L52.4012 43.4771C52.4867 55.9896 54.657 61.1476 57.8861 65.0242C61.1886 62.5347 63.306 58.6704 63.306 54.33C63.306 54.334 63.306 54.334 63.306 54.33Z" fill="#3B175C"/>
<path d="M45.9095 43.4801L45.9135 41.1045C45.0421 41.2997 44.1911 41.5764 43.3767 41.9262L43.3808 43.4841C43.3441 47.1045 43.1364 50.0739 42.2284 52.7831C41.4791 55.0204 40.2657 56.9119 38.5677 58.5267C38.0098 57.2332 37.6922 55.8177 37.6922 54.3329C37.6922 51.0787 39.1744 48.1539 41.5239 46.1403L41.5769 42.8699C37.627 45.278 35.0006 49.5125 35.0006 54.3288V54.3329C35.0006 58.6732 37.1221 62.5376 40.4204 65.0271C43.6576 61.1545 45.8239 55.9926 45.9095 43.4801Z" fill="#3B175C"/>
<path d="M50.4249 38.6896C49.9648 38.653 49.5495 38.6367 49.1585 38.6367C48.7676 38.6367 48.3523 38.653 47.888 38.6896V41.5004C47.888 53.8176 47.4116 59.1708 45.567 67.4854C47.9043 68.0752 50.3882 68.0752 52.7297 67.4895C50.8973 59.2359 50.4249 53.8828 50.4249 41.5004V38.6896Z" fill="#3B175C"/>
</g>
</g>
<rect x="1.16663" y="0.5" width="222.333" height="107" stroke="#1E1E1E" stroke-opacity="0.2"/>
<defs>
<clipPath id="clip0_22_1678">
<rect width="155" height="52" fill="white" transform="translate(35.0006 28)"/>
</clipPath>
</defs>
</svg>
