<svg width="224" height="108" viewBox="0 0 224 108" fill="none" xmlns="http://www.w3.org/2000/svg">
<mask id="mask0_22_3395" style="mask-type:luminance" maskUnits="userSpaceOnUse" x="33" y="35" width="157" height="42">
<path d="M33 35H190V77H33V35Z" fill="black"/>
</mask>
<g mask="url(#mask0_22_3395)">
<path fill-rule="evenodd" clip-rule="evenodd" d="M53.4813 59.1104H36.1681V38.8485H33V61.5931H53.4813V59.1104ZM50.0023 46.8939L54.2674 38.8485H50.835L47.6534 46.8939H50.0023ZM71.1959 60.6891C64.8371 60.6891 59.5983 55.5605 59.5983 49.3823C59.5983 43.2106 64.5911 37.8369 71.441 37.8369C78.1245 37.8369 83.0351 43.2097 83.0351 49.3823C83.0359 55.5605 77.552 60.6891 71.1959 60.6891ZM71.3045 35C62.116 35 55.8526 41.5019 55.8526 49.3755C55.8526 57.6628 62.7722 63.5102 71.3045 63.5102C79.8362 63.5102 86.7516 57.7462 86.7516 49.3755C86.7516 41.5019 80.4102 35 71.3045 35ZM104.706 49.364H94.1275V41.5419H105.077C107.596 41.5419 109.014 42.7228 109.525 44.222C109.863 45.2519 109.646 46.602 109.089 47.5201C108.173 49.0421 106.435 49.364 104.706 49.364ZM107.42 52.0849C112.61 50.6939 113.116 46.8137 113.091 45.4304C112.78 41.3669 110.054 38.8485 105.15 38.8485H90.8704V61.5931H94.1265V52.054H103.422L110.261 61.5931H114.364C114.365 61.5931 109.446 55.1728 107.42 52.0849ZM148.582 52.8596L154.01 41.994L159.506 52.8596H148.582ZM151.803 38.8485L140.282 61.5931H144.176L147.125 55.7064H160.941L163.915 61.5931H167.769L156.239 38.8485H151.803ZM190 59.1104H172.687V38.8485H169.519V61.5931H190V59.1104ZM134.809 35.176H128.942L126.198 38.2681L134.809 35.176ZM134.495 51.1609V48.6459H121.889V41.3259H138.674V38.8485H118.413V61.5931H138.674V59.1104H121.889V51.1609H134.495ZM123.978 76.6699H125.603V70.1763H123.978V76.6699ZM123.968 69.2148H125.592V67.5845H123.968V69.2148ZM136.385 71.8257L132.896 71.2295C132.181 71.1044 131.449 70.8501 131.449 70.0778C131.449 68.7002 133.201 68.4851 134.24 68.4851C135.619 68.4851 137.186 68.9281 137.27 70.3323H138.819C138.751 69.3324 138.325 67.4345 134.053 67.4345C131.092 67.4345 129.848 68.8253 129.848 70.242C129.848 71.8248 131.653 72.2419 132.453 72.3802L134.955 72.8123C136.963 73.1657 137.559 73.4701 137.559 74.4182C137.559 75.7216 135.551 75.9493 134.359 75.9493C132.793 75.9493 130.989 75.4689 130.989 73.8237H129.439C129.439 74.6727 129.644 75.4316 130.682 76.1269C131.226 76.4929 132.112 77 134.376 77C136.469 77 139.159 76.4055 139.159 74.254C139.16 72.8131 137.967 72.1043 136.385 71.8257ZM98.5345 72.9873L100.782 68.9887H100.821L102.892 72.9873H98.5345ZM99.8049 67.6355L94.5278 76.7208H96.4829L97.9485 74.0757H103.577L104.965 76.7208H107.037L101.955 67.6355H99.8049ZM111.807 71.8358H115.214C116.75 71.8358 117.792 71.4304 117.792 70.2037C117.792 69.0522 116.697 68.6845 115.285 68.6845H111.807V71.8358ZM119.955 76.6549H118.023L115.438 72.9689C115.406 72.9215 115.343 72.8972 115.278 72.8856H115.362C115.335 72.8807 115.307 72.8789 115.278 72.8856H111.807V76.7198H110.095V67.6346H115.796C118.143 67.6346 119.556 68.7227 119.556 70.1896C119.556 71.2353 118.865 72.3919 117.07 72.7614L119.955 76.6549ZM89.7312 71.8358H86.3246V68.6845H89.8018C91.2143 68.6845 92.3086 69.0522 92.3086 70.2037C92.3086 71.4304 91.2666 71.8358 89.7312 71.8358ZM90.3136 67.6355H84.6122V76.7208H86.3246V72.8865H90.3136C93.0673 72.8865 94.0735 71.4564 94.0735 70.1913C94.0735 68.7237 92.6617 67.6355 90.3136 67.6355Z" fill="black"/>
</g>
<rect x="0.5" y="0.5" width="222.333" height="107" stroke="#1E1E1E" stroke-opacity="0.2"/>
</svg>
