<svg width="224" height="108" viewBox="0 0 224 108" fill="none" xmlns="http://www.w3.org/2000/svg">
<path d="M186.677 16H36V91.1874H186.677V16Z" fill="#014171" stroke="white"/>
<path d="M168.962 59.7566C168.928 60.0246 168.827 60.7296 167.909 60.8212H159.843C158.924 60.7296 158.756 60.0246 158.722 59.7566V47.3046C158.756 47.036 158.883 46.4649 159.802 46.3734H167.912C168.831 46.4649 168.928 47.036 168.962 47.3046V59.7566ZM171.755 41.6818H155.929C153.551 41.8736 151.543 43.0796 151.275 45.7776V61.1939C151.543 63.8919 153.551 65.3212 155.929 65.5131H171.755C174.133 65.3212 176.141 63.8919 176.41 61.1939V45.7776C176.141 43.0796 174.133 41.8736 171.755 41.6818ZM107.707 46.3734H100.632V41.6818H122.23V46.3734H115.154V65.5131H107.707V46.3734ZM98.3977 46.3734V41.6818H79.034V65.5131L98.6551 65.5079L98.6621 60.8215H86.5003L86.5015 55.7173H98.3976V51.0373H86.5015V46.3734L98.3977 46.3734ZM141.593 50.0672C141.593 50.5829 141.465 51.0354 140.539 51.0354H131.911V46.3576H140.55C141.601 46.3576 141.593 47.0453 141.593 47.4746V50.0672ZM143.656 56.2488C145.979 56.0628 148.296 54.4814 148.296 51.8844V46.0009C148.026 43.3155 146.011 41.8653 143.623 41.6741H124.464L124.464 65.5131H131.911V56.2488H134.875L139.716 65.5131H148.281L142.516 56.2488H143.656ZM63.618 65.5131L68.6077 50.5441V65.5131H76.0552V41.6818H66.0014L61.1604 53.5978L56.3195 41.6818H46.2656V65.5131H53.7131V50.5441L58.7397 65.5131H63.618Z" fill="#FBC51D"/>
<rect x="0.5" y="0.5" width="222.333" height="107" stroke="#1E1E1E" stroke-opacity="0.2"/>
</svg>
