<svg width="224" height="108" viewBox="0 0 224 108" fill="none" xmlns="http://www.w3.org/2000/svg">
<path d="M96.3664 51.8674H82.1795V45.0657H101.238V41.6384H78.8604V45.0657V65.3654H96.3129C100.221 65.3654 103.272 62.36 103.272 58.5109C103.272 55.3473 100.703 51.8674 96.3664 51.8674ZM96.3129 61.9381H82.126V55.0837H96.3129C98.2401 55.0837 99.7926 56.6128 99.7926 58.5109C99.7926 60.4091 98.2401 61.9381 96.3129 61.9381Z" fill="#323E48"/>
<path d="M76.5559 53.5019C76.5559 56.7709 75.2175 59.7236 73.0226 61.8854C70.8276 64.0472 67.8296 65.3654 64.5104 65.3654H50.4307V61.9381H64.5104C68.6862 61.9381 72.166 58.9855 72.9155 55.0837H54.4458V51.8147H72.9155C72.1125 47.9656 68.6862 45.0129 64.5104 45.0129H50.4307V41.5857H64.5104C71.1488 41.6384 76.5559 46.9638 76.5559 53.5019Z" fill="#323E48"/>
<path d="M46.2009 53.1855C47.3787 51.9728 48.1282 50.2856 48.1282 48.4402C48.1282 44.6438 45.0232 41.5857 41.2222 41.5857H25.001V65.3126H41.8111C45.6656 65.3126 48.7706 62.2545 48.7706 58.4582C48.7706 56.3491 47.7535 54.451 46.2009 53.1855ZM41.1686 45.0657C43.0424 45.0657 44.5949 46.5947 44.5949 48.4402C44.5949 50.2856 43.0424 51.8147 41.1686 51.8147H28.3202V45.0657H41.1686ZM41.8111 61.9381H28.3202V55.0837H41.8111C43.7383 55.0837 45.2908 56.6128 45.2908 58.5109C45.2908 60.4091 43.7383 61.9381 41.8111 61.9381Z" fill="#323E48"/>
<path d="M120.454 65.3654H124.041V61.6745H150.541V41.5857H120.454V65.3654ZM124.041 45.0657H146.954V58.1946H124.041V45.0657Z" fill="#616E7D"/>
<path d="M153.969 61.6745H174.366V65.3654H177.899V61.6745H198.296V41.5857H153.915V61.6745H153.969ZM177.952 45.0657H194.816V58.1946H177.952V45.0657ZM157.502 45.0657H174.366V58.1946H157.502V45.0657Z" fill="#616E7D"/>
<path d="M113.549 38H109.962V69.0559H113.549V38Z" fill="#616E7D"/>
<rect x="0.833008" y="0.5" width="222.333" height="107" stroke="#1E1E1E" stroke-opacity="0.2"/>
</svg>
