<svg width="224" height="108" viewBox="0 0 224 108" fill="none" xmlns="http://www.w3.org/2000/svg">
<path d="M191.907 85H98.8018V82.8514H191.907V85Z" fill="#C9A565"/>
<path d="M107.376 28.1913H102.11V40.0044H98.6689V24.9701H110.815V40.0044H107.376V28.1913Z" fill="#C9A565"/>
<path d="M114.579 24.9701H118.041L122.684 31.3063L127.069 24.9701H130.315V40.0044H126.876V30.4242L122.684 36.2884H122.189L118.019 30.4895V40.0044H114.579V24.9701Z" fill="#C9A565"/>
<path d="M136.036 30.7253H141.949C141.282 28.9 139.54 27.934 137.262 27.934C136.187 27.934 135.005 28.2783 133.995 29.0285L132.683 26.4513C133.693 25.5709 135.542 24.7119 138.1 24.7119C142.464 24.7119 145.688 27.8046 145.688 32.4866C145.688 37.3186 142.572 40.2612 137.649 40.2612C135.477 40.2612 133.478 39.5313 132.575 38.6947L134.037 35.7938C134.811 36.4382 136.079 37.0396 137.585 37.0396C139.583 37.0396 141.497 36.1592 142.076 33.9478H136.036V30.7253Z" fill="#C9A565"/>
<path d="M157.213 29.5444V34.9994C159.471 34.9564 160.286 34.0334 160.286 32.2725C160.286 30.8543 159.513 29.6093 157.213 29.5444ZM153.773 34.9994V29.5444C151.58 29.6093 150.742 30.8113 150.742 32.2725C150.742 34.0119 151.666 34.9564 153.773 34.9994ZM153.773 38.1574C149.753 38.1135 147.087 36.0307 147.087 32.2725C147.087 28.5565 149.818 26.4952 153.773 26.3877V24.7984H157.213V26.3877C161.125 26.4733 163.942 28.5999 163.942 32.2725C163.942 36.0092 161.211 38.1135 157.213 38.1574V40.1753H153.773V38.1574Z" fill="#C9A565"/>
<path d="M166.052 29.7805C165.515 29.2217 165.235 28.2784 165.235 27.5257C165.235 25.2486 166.719 23.9176 167.664 23.3592L169.17 24.7121C168.568 25.2705 168.244 26.0658 168.244 26.8177C168.244 27.3108 168.417 27.8692 168.761 28.2135L166.052 29.7805Z" fill="#C9A565"/>
<path d="M102.755 45.3101H99.8854V50.6843H98.7549V44.2546H103.887V50.6843H102.755V45.3101Z" fill="#C9A565"/>
<path d="M105.856 44.2546H109.58V45.3101H106.987V46.9088H109.304V47.9657H106.987V49.6284H109.672V50.6843H105.856V44.2546Z" fill="#C9A565"/>
<path d="M110.528 44.2546H115.835V45.3101H113.747V50.6843H112.617V45.3101H110.528V44.2546Z" fill="#C9A565"/>
<path d="M117.005 44.2546H120.73V45.3101H118.135V46.9088H120.453V47.9657H118.135V49.6284H120.821V50.6843H117.005V44.2546Z" fill="#C9A565"/>
<path d="M123.609 45.3101V47.2856C123.875 47.3136 124.151 47.3317 124.408 47.3317C125.08 47.3317 125.604 47.0104 125.604 46.2952C125.604 45.6242 125.19 45.2929 124.419 45.2929C124.187 45.2929 123.912 45.3017 123.609 45.3101ZM122.478 50.6843V44.2546C122.836 44.2546 123.857 44.2362 124.307 44.2362C126.202 44.2362 126.798 45.2468 126.798 46.3028C126.798 47.3963 125.981 48.3882 124.445 48.3882C124.252 48.3882 123.884 48.3882 123.609 48.361V50.6843H122.478Z" fill="#C9A565"/>
<path d="M129.421 47.8002V49.6283C129.678 49.6472 129.899 49.665 130.138 49.665C130.975 49.665 131.324 49.2801 131.324 48.7098C131.324 48.1586 130.985 47.7441 130.193 47.7441C129.982 47.7441 129.707 47.764 129.421 47.8002ZM128.29 44.2545H132.051V45.31H129.421V46.7443C129.669 46.7077 130.055 46.6891 130.285 46.6891C131.627 46.6891 132.446 47.4423 132.446 48.627C132.446 49.9592 131.545 50.7209 129.963 50.7209C129.219 50.7209 128.667 50.6842 128.29 50.6842V44.2545Z" fill="#C9A565"/>
<path d="M137.212 49.187C136.771 50.1702 136.264 50.6843 135.465 50.6843C135.135 50.6843 134.757 50.5651 134.583 50.4273L134.978 49.4726C135.152 49.5913 135.272 49.6284 135.456 49.6284C135.76 49.6284 135.962 49.4543 136.091 49.1789L136.183 48.9575L133.341 44.2546H134.621L136.724 47.8467L138.26 44.2546H139.401L137.212 49.187Z" fill="#C9A565"/>
<path d="M141.718 45.3101V47.2856C141.984 47.3136 142.26 47.3317 142.517 47.3317C143.188 47.3317 143.713 47.0104 143.713 46.2952C143.713 45.6242 143.301 45.2929 142.527 45.2929C142.298 45.2929 142.022 45.3017 141.718 45.3101ZM140.587 50.6843V44.2546C140.945 44.2546 141.965 44.2362 142.417 44.2362C144.312 44.2362 144.909 45.2468 144.909 46.3028C144.909 47.3963 144.09 48.3882 142.554 48.3882C142.362 48.3882 141.995 48.3882 141.718 48.361V50.6843H140.587Z" fill="#C9A565"/>
<path d="M146.399 44.2546H150.032V45.3101H147.531V50.6843H146.399V44.2546Z" fill="#C9A565"/>
<path d="M155.907 50.0599C155.503 50.4924 154.684 50.7866 153.849 50.7866C151.88 50.7866 150.528 49.4727 150.528 47.4704C150.528 45.6243 151.696 44.1539 153.821 44.1539C154.657 44.1539 155.355 44.4196 155.78 44.805L155.272 45.6414C154.886 45.3839 154.465 45.2103 153.821 45.2103C152.625 45.2103 151.725 46.0739 151.725 47.4704C151.725 48.811 152.635 49.7292 153.948 49.7292C154.492 49.7292 155.034 49.5548 155.476 49.215L155.907 50.0599Z" fill="#C9A565"/>
<path d="M157.216 44.2546H158.348V47.3041L160.886 44.2546H162.246L159.598 47.2494L162.413 50.6843H160.977L158.348 47.3683V50.6843H157.216V44.2546Z" fill="#C9A565"/>
<path d="M163.583 50.6843V44.2546H164.714V48.8291L168.089 44.2546H169.082V50.6843H167.951V46.1186L164.576 50.6843H163.583Z" fill="#C9A565"/>
<path d="M173.131 42.6931C173.204 43.051 173.452 43.2253 173.912 43.2253C174.325 43.2253 174.611 43.087 174.647 42.6931H175.705C175.677 43.4833 174.924 44.006 173.912 44.006C172.809 44.006 172.137 43.4739 172.074 42.6931H173.131ZM171.052 50.6843V44.2546H172.182V48.8291L175.558 44.2546H176.551V50.6843H175.42V46.1186L172.045 50.6843H171.052Z" fill="#C9A565"/>
<path d="M98.708 53.5572H99.8495L102.046 56.5615L104.143 53.5572H105.21V59.988H104.087V55.3398L102.057 58.1963H101.89L99.8394 55.3673V59.988H98.708V53.5572Z" fill="#C9A565"/>
<path d="M106.985 53.5572H110.711V54.6141H108.118V56.2129H110.434V57.2688H108.118V58.9316H110.803V59.988H106.985V53.5572Z" fill="#C9A565"/>
<path d="M111.895 53.5572H113.192L115.526 56.6261V53.5572H116.649V56.6261L118.975 53.5572H120.28L117.863 56.6261L120.381 59.988H119.077L116.649 56.6524V59.988H115.526V56.6524L113.09 59.988H111.794L114.313 56.6353L111.895 53.5572Z" fill="#C9A565"/>
<path d="M123.084 58.9316H125.769V54.6141H123.994L123.893 55.7352C123.773 57.3974 123.314 58.6468 123.084 58.9316ZM121.153 58.9316H121.843C122.109 58.6007 122.725 57.2403 122.836 54.8433L122.9 53.5571H126.891V58.9316H127.764V61.136H126.706V59.988H122.211V61.136H121.153V58.9316Z" fill="#C9A565"/>
<path d="M132.025 58.4906C131.582 59.4737 131.078 59.988 130.277 59.988C129.947 59.988 129.569 59.8685 129.394 59.7309L129.79 58.7752C129.964 58.8949 130.083 58.9316 130.268 58.9316C130.571 58.9316 130.773 58.7566 130.903 58.482L130.994 58.2609L128.153 53.5572H129.431L131.537 57.1485L133.073 53.5572H134.214L132.025 58.4906Z" fill="#C9A565"/>
<path d="M139.446 57.2403H136.503V59.988H135.372V53.5572H136.503V56.1847H139.446V53.5572H140.568V59.988H139.446V57.2403Z" fill="#C9A565"/>
<path d="M143.952 57.2867H145.836L144.898 54.9995L143.952 57.2867ZM144.43 53.5382H145.424L148.145 59.988H146.941L146.269 58.3432H143.52L142.849 59.988H141.708L144.43 53.5382Z" fill="#C9A565"/>
<path d="M150.418 54.6141V56.5892C150.684 56.6162 150.96 56.6353 151.218 56.6353C151.889 56.6353 152.413 56.3131 152.413 55.5965C152.413 54.9259 151.999 54.5947 151.228 54.5947C150.997 54.5947 150.723 54.6047 150.418 54.6141ZM149.286 59.988V53.5572C149.647 53.5572 150.665 53.5382 151.117 53.5382C153.011 53.5382 153.609 54.5491 153.609 55.6058C153.609 56.699 152.791 57.6907 151.255 57.6907C151.062 57.6907 150.693 57.6907 150.418 57.6631V59.988H149.286Z" fill="#C9A565"/>
<path d="M157.989 59.0322C159.34 59.0322 160.149 58.0404 160.149 56.7721C160.149 55.4401 159.202 54.513 157.989 54.513C156.756 54.513 155.837 55.4401 155.837 56.7721C155.837 58.059 156.784 59.0322 157.989 59.0322ZM157.989 53.4561C159.9 53.4561 161.346 54.7695 161.346 56.7721C161.346 58.7011 159.9 60.0886 157.989 60.0886C156.076 60.0886 154.642 58.7752 154.642 56.7721C154.642 54.9083 156.011 53.4561 157.989 53.4561Z" fill="#C9A565"/>
<path d="M163.874 58.9316H166.56V54.6141H164.784L164.684 55.7352C164.564 57.3974 164.104 58.6468 163.874 58.9316ZM161.942 58.9316H162.633C162.9 58.6007 163.515 57.2403 163.626 54.8433L163.69 53.5571H167.681V58.9316H168.555V61.136H167.496V59.988H163.002V61.136H161.942V58.9316Z" fill="#C9A565"/>
<path d="M173.852 57.2403H170.908V59.988H169.778V53.5572H170.908V56.1847H173.852V53.5572H174.974V59.988H173.852V57.2403Z" fill="#C9A565"/>
<path d="M181.786 53.5573H182.908V59.9882H181.786V53.5573ZM177.878 56.8183V58.9227C178.081 58.9317 178.265 58.9497 178.485 58.9497C179.313 58.9497 179.755 58.573 179.755 57.8201C179.755 57.1306 179.294 56.7722 178.504 56.7722C178.328 56.7722 178.135 56.7913 177.878 56.8183ZM177.878 55.7624C178.164 55.7249 178.413 55.7163 178.595 55.7163C180.186 55.7163 180.949 56.534 180.949 57.7924C180.949 59.1517 179.993 60.0056 178.348 60.0056C177.741 60.0056 177.123 59.9882 176.747 59.9882V53.5573H177.878V55.7624Z" fill="#C9A565"/>
<path d="M186.763 51.9956C186.839 52.3539 187.086 52.5284 187.546 52.5284C187.959 52.5284 188.245 52.3906 188.28 51.9956H189.34C189.311 52.7851 188.558 53.3097 187.546 53.3097C186.442 53.3097 185.771 52.776 185.707 51.9956H186.763ZM184.685 59.988V53.5572H185.817V58.1326L189.192 53.5572H190.185V59.988H189.054V55.422L185.679 59.988H184.685Z" fill="#C9A565"/>
<path d="M99.8583 65.4877H102.728C102.507 64.4129 101.624 63.8148 100.411 63.8148C99.8962 63.8148 99.3529 63.9716 98.9023 64.3122L98.4611 63.4666C98.9112 63.0802 99.6937 62.759 100.677 62.759C102.571 62.759 103.914 64.0634 103.914 66.0672C103.914 68.0783 102.608 69.3921 100.548 69.3921C99.6566 69.3921 98.8382 69.1071 98.3877 68.721L98.8762 67.7752C99.2795 68.088 99.8582 68.3358 100.53 68.3358C101.633 68.3358 102.562 67.729 102.755 66.5443H99.8583V65.4877Z" fill="#C9A565"/>
<path d="M105.403 62.8605H106.535V65.9109L109.072 62.8605H110.433L107.785 65.8558L110.599 69.2915H109.164L106.535 65.9745V69.2915H105.403V62.8605Z" fill="#C9A565"/>
<path d="M114.282 68.3358C115.633 68.3358 116.442 67.3429 116.442 66.0759C116.442 64.7429 115.496 63.8148 114.282 63.8148C113.048 63.8148 112.129 64.7429 112.129 66.0759C112.129 67.3613 113.078 68.3358 114.282 68.3358ZM114.282 62.759C116.195 62.759 117.638 64.072 117.638 66.0759C117.638 68.0054 116.195 69.3921 114.282 69.3921C112.369 69.3921 110.935 68.0783 110.935 66.0759C110.935 64.2101 112.305 62.759 114.282 62.759Z" fill="#C9A565"/>
<path d="M123.202 66.5445H120.26V69.2915H119.13V62.8605H120.26V65.4878H123.202V62.8605H124.324V69.2915H123.202V66.5445Z" fill="#C9A565"/>
<path d="M129.16 68.3358C130.512 68.3358 131.322 67.3429 131.322 66.0759C131.322 64.7429 130.374 63.8148 129.16 63.8148C127.929 63.8148 127.01 64.7429 127.01 66.0759C127.01 67.3613 127.957 68.3358 129.16 68.3358ZM129.16 62.759C131.074 62.759 132.518 64.072 132.518 66.0759C132.518 68.0054 131.074 69.3921 129.16 69.3921C127.248 69.3921 125.813 68.0783 125.813 66.0759C125.813 64.2101 127.184 62.759 129.16 62.759Z" fill="#C9A565"/>
<path d="M134.013 62.8605H135.153L137.351 65.8642L139.448 62.8605H140.514V69.2915H139.392V64.6428L137.361 67.4998H137.196L135.145 64.6701V69.2915H134.013V62.8605Z" fill="#C9A565"/>
<path d="M142.481 69.2915V62.8605H143.612V67.4349L146.987 62.8605H147.98V69.2915H146.849V64.7258L143.475 69.2915H142.481Z" fill="#C9A565"/>
<path d="M154.298 69.2915H153.168V66.6548C152.864 66.8752 152.32 67.0957 151.633 67.0957C150.657 67.0957 149.673 66.5718 149.673 65.0373V62.8605H150.804V64.7157C150.804 65.7448 151.3 66.039 151.935 66.039C152.433 66.039 152.845 65.8461 153.168 65.6257V62.8605H154.298V69.2915Z" fill="#C9A565"/>
<path d="M156.271 62.8605H159.994V63.9166H157.402V65.5152H159.718V66.5718H157.402V68.2344H160.087V69.2915H156.271V62.8605Z" fill="#C9A565"/>
<path d="M166.643 68.6667C166.237 69.0979 165.419 69.3921 164.583 69.3921C162.615 69.3921 161.263 68.0783 161.263 66.0759C161.263 64.2296 162.43 62.759 164.554 62.759C165.392 62.759 166.09 63.0252 166.513 63.4115L166.007 64.2473C165.622 63.9902 165.198 63.8148 164.554 63.8148C163.359 63.8148 162.459 64.6793 162.459 66.0759C162.459 67.417 163.369 68.3358 164.683 68.3358C165.226 68.3358 165.769 68.161 166.21 67.8211L166.643 68.6667Z" fill="#C9A565"/>
<path d="M167.95 62.8605H169.081V65.9109L171.62 62.8605H172.98L170.332 65.8558L173.146 69.2915H171.711L169.081 65.9745V69.2915H167.95V62.8605Z" fill="#C9A565"/>
<path d="M174.317 69.2915V62.8605H175.447V67.4349L178.823 62.8605H179.816V69.2915H178.683V64.7258L175.311 69.2915H174.317Z" fill="#C9A565"/>
<path d="M183.864 61.299C183.939 61.6577 184.187 61.832 184.647 61.832C185.06 61.832 185.346 61.6937 185.382 61.299H186.439C186.412 62.0892 185.657 62.6124 184.647 62.6124C183.543 62.6124 182.872 62.0806 182.807 61.299H183.864ZM181.786 69.2915V62.8605H182.917V67.4349L186.291 62.8605H187.286V69.2915H186.153V64.7258L182.78 69.2915H181.786Z" fill="#C9A565"/>
<path d="M102.654 73.799V76.7758C103.821 76.7666 104.428 76.27 104.428 75.2864C104.428 74.4237 103.859 73.8164 102.654 73.799ZM101.523 76.7758V73.799C100.346 73.8075 99.7485 74.4139 99.7485 75.2864C99.7485 76.2511 100.391 76.7666 101.523 76.7758ZM101.523 77.813C99.7485 77.813 98.5518 76.9127 98.5518 75.2864C98.5518 73.6789 99.7582 72.7884 101.523 72.7606V72.0905H102.654V72.7606C104.41 72.7884 105.624 73.7064 105.624 75.2864C105.624 76.8951 104.41 77.8042 102.654 77.813V78.6677H101.523V77.813Z" fill="#C9A565"/>
<path d="M109.894 77.6379C111.246 77.6379 112.055 76.6462 112.055 75.3788C112.055 74.0471 111.108 73.1191 109.894 73.1191C108.663 73.1191 107.743 74.0471 107.743 75.3788C107.743 76.6647 108.69 77.6379 109.894 77.6379ZM109.894 72.0625C111.807 72.0625 113.25 73.3766 113.25 75.3788C113.25 77.3075 111.807 78.6948 109.894 78.6948C107.982 78.6948 106.548 77.3808 106.548 75.3788C106.548 73.5135 107.918 72.0625 109.894 72.0625Z" fill="#C9A565"/>
<path d="M115.869 73.2196V75.195C116.137 75.2229 116.413 75.2402 116.67 75.2402C117.341 75.2402 117.865 74.9187 117.865 74.203C117.865 73.5324 117.451 73.2012 116.679 73.2012C116.449 73.2012 116.173 73.2104 115.869 73.2196ZM114.739 78.5942V72.164C115.097 72.164 116.118 72.1449 116.568 72.1449C118.463 72.1449 119.06 73.1553 119.06 74.2122C119.06 75.305 118.241 76.2968 116.707 76.2968C116.514 76.2968 116.145 76.2968 115.869 76.2698V78.5942H114.739Z" fill="#C9A565"/>
<path d="M123.314 77.0959C122.873 78.0799 122.367 78.5942 121.567 78.5942C121.237 78.5942 120.86 78.4735 120.684 78.3371L121.08 77.3807C121.254 77.5004 121.374 77.5376 121.558 77.5376C121.861 77.5376 122.064 77.3626 122.192 77.087L122.284 76.8671L119.442 72.164H120.721L122.827 75.7551L124.362 72.164H125.503L123.314 77.0959Z" fill="#C9A565"/>
<path d="M126.688 72.164H127.829L130.026 75.1672L132.123 72.164H133.189V78.5942H132.068V73.945L130.036 76.802H129.87L127.82 73.9728V78.5942H126.688V72.164Z" fill="#C9A565"/>
<path d="M58.3866 24.3981C43.2621 24.3981 31.001 36.6457 31.001 51.7555C31.001 66.8668 43.2621 79.1147 58.3866 79.1147C73.5073 79.1147 85.7678 66.8668 85.7678 51.7555C85.7678 36.6457 73.5073 24.3981 58.3866 24.3981Z" fill="#C9A565"/>
<path d="M64.301 39.8032C64.2962 39.7889 64.2918 39.775 64.287 39.7607H51.7549L51.8089 39.9267C52.5434 42.1453 52.9474 44.5194 52.9474 46.9907C52.9474 49.4622 52.5434 51.836 51.8089 54.0551L51.7549 54.2207H64.287C64.2918 54.2067 64.2962 54.1925 64.301 54.1784C65.0618 51.9243 65.4805 49.5081 65.4805 46.9907C65.4805 44.4735 65.0618 42.0572 64.301 39.8032Z" fill="white"/>
<path d="M75.4031 45.5615C75.4006 45.5531 75.3976 45.5448 75.3947 45.5364H67.8682L67.9006 45.6356C68.3418 46.9685 68.5845 48.3942 68.5845 49.8785C68.5845 51.3629 68.3418 52.7886 67.9006 54.1213L67.8682 54.2207H75.3947C75.3976 54.2123 75.4006 54.2038 75.4031 54.1954C75.86 52.8414 76.1118 51.3904 76.1118 49.8785C76.1118 48.3667 75.86 46.9155 75.4031 45.5615Z" fill="white"/>
<path d="M48.5751 45.5615C48.5723 45.5531 48.5695 45.5448 48.5667 45.5364H41.04L41.0725 45.6356C41.5136 46.9685 41.7562 48.3942 41.7562 49.8785C41.7562 51.3629 41.5136 52.7886 41.0725 54.1213L41.04 54.2207H48.5667C48.5695 54.2123 48.5723 54.2038 48.5751 54.1954C49.0318 52.8414 49.2835 51.3904 49.2835 49.8785C49.2835 48.3667 49.0318 46.9155 48.5751 45.5615Z" fill="white"/>
<path d="M46.6108 40.2869C46.6096 40.284 46.6086 40.2806 46.6075 40.2772H43.6572L43.6699 40.316C43.8429 40.8386 43.938 41.3975 43.938 41.9791C43.938 42.5611 43.8429 43.1198 43.6699 43.6421L43.6572 43.6812H46.6075C46.6086 43.6779 46.6096 43.6746 46.6108 43.6713C46.7897 43.1407 46.8884 42.5717 46.8884 41.9791C46.8884 41.3865 46.7897 40.8175 46.6108 40.2869Z" fill="white"/>
<path d="M73.1616 40.2869C73.1604 40.284 73.1593 40.2806 73.1583 40.2772H70.208L70.2207 40.316C70.3935 40.8386 70.4888 41.3975 70.4888 41.9791C70.4888 42.5611 70.3935 43.1198 70.2207 43.6421L70.208 43.6812H73.1583C73.1593 43.6779 73.1604 43.6746 73.1616 43.6713C73.3406 43.1407 73.4393 42.5717 73.4393 41.9791C73.4393 41.3865 73.3406 40.8175 73.1616 40.2869Z" fill="white"/>
<path d="M60.0506 33.0611C60.0492 33.0569 60.0478 33.0527 60.0464 33.0481H56.1885L56.2051 33.0991C56.4312 33.7822 56.5556 34.5131 56.5556 35.2738C56.5556 36.0349 56.4312 36.7658 56.2051 37.4485L56.1885 37.4995H60.0464C60.0478 37.4953 60.0492 37.4911 60.0506 37.4864C60.2848 36.7927 60.4138 36.0489 60.4138 35.2738C60.4138 34.4991 60.2848 33.7553 60.0506 33.0611Z" fill="white"/>
<path d="M70.9341 65.2531L75.2227 57.0261L41.04 56.9609L45.9765 65.1864H57.8845V68.1901C57.1796 68.4481 56.6735 69.1187 56.6735 69.9124C56.6735 70.8644 57.3997 71.6382 58.3273 71.7333C58.3858 71.7401 58.4426 71.7524 58.5028 71.7524C58.5049 71.7524 58.5067 71.7519 58.5089 71.7519C58.511 71.7519 58.513 71.7524 58.5153 71.7524C59.5325 71.7524 60.3571 70.9284 60.3571 69.9124C60.3571 69.1173 59.8495 68.4464 59.143 68.1893V65.1864L70.9341 65.2531Z" fill="white"/>
<path d="M180.419 40.9296H170.337V38.2554C170.352 38.2406 170.716 37.8914 171.43 37.208L172.657 35.9824C172.924 35.6853 173.281 35.3139 173.727 34.8682C174.233 34.3333 174.59 33.9099 174.798 33.5979L175.534 32.4614C176.054 31.674 176.315 30.8644 176.315 30.0324C176.315 29.0073 175.839 28.4948 174.887 28.4948C174.456 28.4948 174.114 28.6359 173.861 28.9182C173.608 29.1856 173.378 29.6016 173.17 30.1661L170.382 28.8959C170.649 27.7223 171.199 26.8086 172.032 26.1549C172.88 25.4864 173.965 25.1521 175.289 25.1521C176.731 25.1521 177.854 25.5606 178.657 26.3777C179.475 27.1948 179.883 28.1902 179.883 29.3639C179.883 32.3203 178.144 35.1356 174.664 37.8097H180.419V40.9296Z" fill="#C9A565"/>
<path d="M191.983 40.9296H188.637V37.5869H181.544V35.091L187.121 25.3304H190.957L185.849 34.2442H188.637V30.9015H191.983V34.2442H193.812V37.5869H191.983V40.9296Z" fill="#C9A565"/>
<rect x="0.833008" y="0.5" width="222.333" height="107" stroke="#1E1E1E" stroke-opacity="0.2"/>
</svg>
