<svg width="18" height="18" viewBox="0 0 18 18" fill="none" xmlns="http://www.w3.org/2000/svg">
<g id="whatsapp">
<g id="wa">
<path id="Page-1" fill-rule="evenodd" clip-rule="evenodd" d="M9.30221 15.3414H9.29944C8.17859 15.341 7.07725 15.0598 6.09906 14.5262L2.54883 15.4575L3.49893 11.9872C2.91286 10.9715 2.60447 9.81941 2.60498 8.63906C2.60645 4.94654 5.61077 1.94238 9.30215 1.94238C11.0937 1.94316 12.7752 2.6406 14.0396 3.90649C15.304 5.17232 16 6.85492 15.9993 8.64435C15.9978 12.336 12.9947 15.3399 9.30221 15.3414ZM6.26222 13.3145L6.46548 13.4351C7.32011 13.9423 8.29978 14.2106 9.29862 14.211H9.30088C12.3689 14.211 14.8659 11.7139 14.8672 8.64464C14.8678 7.15728 14.2893 5.75878 13.2384 4.70662C12.1874 3.65446 10.7898 3.07473 9.30307 3.07422C6.23268 3.07422 3.73559 5.57108 3.73438 8.64013C3.73394 9.69192 4.02823 10.7162 4.58543 11.6025L4.71778 11.8131L4.15546 13.8671L6.26222 13.3145ZM12.4482 10.0858C12.5649 10.1422 12.6437 10.1803 12.6773 10.2365C12.7191 10.3063 12.7191 10.6413 12.5798 11.0323C12.4403 11.4231 11.7718 11.7799 11.4502 11.8279C11.1619 11.871 10.7971 11.889 10.3963 11.7616C10.1532 11.6845 9.84154 11.5815 9.4423 11.4091C7.87353 10.7317 6.81338 9.21125 6.613 8.92388C6.59897 8.90375 6.58915 8.88967 6.58367 8.88235L6.58232 8.88055C6.49376 8.76239 5.90039 7.97068 5.90039 7.1513C5.90039 6.3805 6.27902 5.97648 6.4533 5.79051C6.46525 5.77777 6.47623 5.76605 6.48606 5.75531C6.63944 5.58778 6.82074 5.5459 6.93229 5.5459C7.04384 5.5459 7.15552 5.54693 7.25301 5.55183C7.26504 5.55243 7.27756 5.55236 7.29049 5.55228C7.38801 5.55171 7.50958 5.551 7.62952 5.83908C7.67565 5.94994 7.74316 6.11429 7.81436 6.28763C7.95836 6.63819 8.11746 7.02553 8.14545 7.08158C8.18729 7.16535 8.21517 7.26303 8.1594 7.37476C8.15102 7.39151 8.14328 7.40732 8.13588 7.42243C8.09399 7.50796 8.06317 7.57087 7.99207 7.6539C7.96411 7.68654 7.93521 7.72173 7.90631 7.75693C7.84874 7.82704 7.79118 7.89714 7.74105 7.94708C7.65728 8.03052 7.57007 8.12105 7.66769 8.28858C7.7653 8.45611 8.10114 9.00407 8.5986 9.4478C9.13335 9.92478 9.59812 10.1264 9.8337 10.2286C9.87971 10.2485 9.91697 10.2647 9.94431 10.2784C10.1116 10.3622 10.2092 10.3481 10.3068 10.2365C10.4044 10.1248 10.7251 9.74784 10.8367 9.58035C10.9482 9.41288 11.0598 9.44077 11.2132 9.49659C11.3666 9.55249 12.1893 9.95727 12.3566 10.041C12.3893 10.0574 12.4198 10.0721 12.4482 10.0858Z" fill="white"/>
</g>
</g>
</svg>
