<svg width="18" height="19" viewBox="0 0 18 19" fill="none" xmlns="http://www.w3.org/2000/svg">
<path fill-rule="evenodd" clip-rule="evenodd" d="M9.30026 15.8414H9.29749C8.17664 15.841 7.07529 15.5598 6.09711 15.0262L2.54688 15.9575L3.49698 12.4872C2.91091 11.4715 2.60252 10.3194 2.60302 9.13906C2.60449 5.44654 5.60881 2.44238 9.3002 2.44238C11.0918 2.44316 12.7733 3.1406 14.0377 4.40649C15.3021 5.67232 15.998 7.35492 15.9973 9.14435C15.9958 12.836 12.9927 15.8399 9.30026 15.8414ZM6.26222 13.8145L6.46548 13.9351C7.32011 14.4423 8.29978 14.7106 9.29862 14.711H9.30088C12.3689 14.711 14.8659 12.2139 14.8672 9.14464C14.8678 7.65728 14.2893 6.25878 13.2384 5.20662C12.1874 4.15446 10.7898 3.57473 9.30307 3.57422C6.23268 3.57422 3.73559 6.07108 3.73438 9.14013C3.73394 10.1919 4.02823 11.2162 4.58543 12.1025L4.71778 12.3131L4.15546 14.3671L6.26222 13.8145ZM12.4462 10.5858C12.5629 10.6422 12.6417 10.6803 12.6754 10.7365C12.7172 10.8063 12.7172 11.1413 12.5778 11.5323C12.4383 11.9231 11.7698 12.2799 11.4483 12.3279C11.16 12.371 10.7952 12.389 10.3943 12.2616C10.1513 12.1845 9.83958 12.0815 9.44034 11.9091C7.87158 11.2317 6.81142 9.71125 6.61105 9.42388C6.59701 9.40375 6.5872 9.38967 6.58172 9.38235L6.58037 9.38055C6.49181 9.26239 5.89844 8.47068 5.89844 7.6513C5.89844 6.8805 6.27707 6.47648 6.45135 6.29051C6.46329 6.27777 6.47427 6.26605 6.48411 6.25531C6.63749 6.08778 6.81879 6.0459 6.93034 6.0459C7.04188 6.0459 7.15356 6.04693 7.25106 6.05183C7.26309 6.05243 7.2756 6.05236 7.28854 6.05228C7.38606 6.05171 7.50763 6.051 7.62756 6.33908C7.6737 6.44994 7.74121 6.61429 7.81241 6.78763C7.9564 7.13819 8.1155 7.52553 8.14349 7.58158C8.18534 7.66535 8.21322 7.76303 8.15744 7.87476C8.14907 7.89151 8.14133 7.90732 8.13393 7.92243C8.09203 8.00796 8.06122 8.07087 7.99011 8.1539C7.96215 8.18654 7.93325 8.22173 7.90436 8.25693C7.84679 8.32704 7.78922 8.39714 7.7391 8.44708C7.65533 8.53052 7.56812 8.62105 7.66573 8.78858C7.76335 8.95611 8.09918 9.50407 8.59665 9.9478C9.1314 10.4248 9.59617 10.6264 9.83175 10.7286C9.87775 10.7485 9.91502 10.7647 9.94236 10.7784C10.1096 10.8622 10.2072 10.8481 10.3049 10.7365C10.4025 10.6248 10.7232 10.2478 10.8347 10.0803C10.9463 9.91288 11.0579 9.94077 11.2112 9.99659C11.3646 10.0525 12.1873 10.4573 12.3547 10.541C12.3873 10.5574 12.4179 10.5721 12.4462 10.5858Z" fill="#1E1E1E"/>
</svg>
